<?xml version="1.0" encoding="UTF-8" standalone="no"?>
<!DOCTYPE svg PUBLIC "-//W3C//DTD SVG 1.1//EN"
 "http://www.w3.org/Graphics/SVG/1.1/DTD/svg11.dtd">
<!-- Generated by graphviz version 15.0.0 (20260523.1842)
 -->
<!-- Title: BUG Pages: 1 -->
<svg width="625pt" height="402pt"
 viewBox="0.00 0.00 625.00 402.00" xmlns="http://www.w3.org/2000/svg" xmlns:xlink="http://www.w3.org/1999/xlink">
<g id="graph0" class="graph" transform="scale(1 1) rotate(0) translate(4 398)">
<title>BUG</title>
<polygon fill="white" stroke="none" points="-4,4 -4,-398 621.25,-398 621.25,4 -4,4"/>
<text xml:space="preserve" text-anchor="middle" x="308.62" y="-374.8" font-family="Helvetica,sans-Serif" font-size="16.00">Le bug (EoI) — à la jointure &#160;workqueue → 2ᵉ NAPI</text>
<g id="clust1" class="cluster">
<title>cluster_wq</title>
<polygon fill="#fee2e2" stroke="#fee2e2" points="31.5,-272.75 31.5,-358.5 424.5,-358.5 424.5,-272.75 31.5,-272.75"/>
<text xml:space="preserve" text-anchor="middle" x="228" y="-339.3" font-family="Helvetica,sans-Serif" font-size="16.00">workqueue par&#45;CPU : déchiffrement EN PARALLÈLE</text>
</g>
<!-- w0 -->
<g id="node1" class="node">
<title>w0</title>
<ellipse fill="white" stroke="black" cx="134.5" cy="-303.38" rx="79.2" ry="22.63"/>
<text xml:space="preserve" text-anchor="middle" x="134.5" y="-304.93" font-family="Helvetica,sans-Serif" font-size="11.00">cœur 0 : paquet n°2</text>
<text xml:space="preserve" text-anchor="middle" x="134.5" y="-292.93" font-family="Helvetica,sans-Serif" font-size="11.00">(PAS encore fini)</text>
</g>
<!-- w2 -->
<g id="node2" class="node">
<title>w2</title>
<ellipse fill="white" stroke="black" cx="329.5" cy="-303.38" rx="79.2" ry="22.63"/>
<text xml:space="preserve" text-anchor="middle" x="329.5" y="-304.93" font-family="Helvetica,sans-Serif" font-size="11.00">cœur 2 : paquet n°5</text>
<text xml:space="preserve" text-anchor="middle" x="329.5" y="-292.93" font-family="Helvetica,sans-Serif" font-size="11.00">FINI en premier</text>
</g>
<!-- SCHED -->
<g id="node3" class="node">
<title>SCHED</title>
<path fill="#fecaca" stroke="#b91c1c" stroke-width="3" d="M439.88,-229.5C439.88,-229.5 219.12,-229.5 219.12,-229.5 213.12,-229.5 207.12,-223.5 207.12,-217.5 207.12,-217.5 207.12,-196.75 207.12,-196.75 207.12,-190.75 213.12,-184.75 219.12,-184.75 219.12,-184.75 439.88,-184.75 439.88,-184.75 445.88,-184.75 451.88,-190.75 451.88,-196.75 451.88,-196.75 451.88,-217.5 451.88,-217.5 451.88,-223.5 445.88,-229.5 439.88,-229.5"/>
<text xml:space="preserve" text-anchor="middle" x="329.5" y="-215.05" font-family="Helvetica,sans-Serif" font-size="11.00">★ napi_schedule(&amp;peer&#45;&gt;napi)</text>
<text xml:space="preserve" text-anchor="middle" x="329.5" y="-202.3" font-family="Helvetica,sans-Serif" font-size="11.00">réveil APRÈS CHAQUE paquet (inconditionnel)</text>
<text xml:space="preserve" text-anchor="middle" x="329.5" y="-190.3" font-family="Helvetica,sans-Serif" font-size="11.00">queueing.h:196</text>
</g>
<!-- w2&#45;&gt;SCHED -->
<g id="edge1" class="edge">
<title>w2&#45;&gt;SCHED</title>
<path fill="none" stroke="black" d="M329.5,-280.52C329.5,-269.11 329.5,-254.9 329.5,-242.09"/>
<polygon fill="black" stroke="black" points="333,-242.36 329.5,-232.36 326,-242.36 333,-242.36"/>
<text xml:space="preserve" text-anchor="middle" x="374.88" y="-251.25" font-family="Helvetica,sans-Serif" font-size="10.00">finit dans le désordre</text>
</g>
<!-- POLL -->
<g id="node4" class="node">
<title>POLL</title>
<path fill="#dcfce7" stroke="black" d="M489,-133.5C489,-133.5 170,-133.5 170,-133.5 164,-133.5 158,-127.5 158,-121.5 158,-121.5 158,-99.25 158,-99.25 158,-93.25 164,-87.25 170,-87.25 170,-87.25 489,-87.25 489,-87.25 495,-87.25 501,-93.25 501,-99.25 501,-99.25 501,-121.5 501,-121.5 501,-127.5 495,-133.5 489,-133.5"/>
<text xml:space="preserve" text-anchor="middle" x="329.5" y="-119.05" font-family="Helvetica,sans-Serif" font-size="11.00">wg_packet_rx_poll regarde la TÊTE de la file</text>
<text xml:space="preserve" text-anchor="middle" x="329.5" y="-107.05" font-family="Helvetica,sans-Serif" font-size="11.00">tête = n°2, encore UNCRYPTED → repart À VIDE (work_done = 0)</text>
<text xml:space="preserve" text-anchor="middle" x="329.5" y="-92.8" font-family="Helvetica,sans-Serif" font-size="11.00">receive.c:451&#45;453</text>
</g>
<!-- SCHED&#45;&gt;POLL -->
<g id="edge2" class="edge">
<title>SCHED&#45;&gt;POLL</title>
<path fill="none" stroke="black" d="M329.5,-183.67C329.5,-172.19 329.5,-157.98 329.5,-145.21"/>
<polygon fill="black" stroke="black" points="333,-145.51 329.5,-135.51 326,-145.51 333,-145.51"/>
<text xml:space="preserve" text-anchor="middle" x="344.88" y="-155.25" font-family="Helvetica,sans-Serif" font-size="10.00">réveille</text>
</g>
<!-- GRO -->
<g id="node5" class="node">
<title>GRO</title>
<polygon fill="#fef9c3" stroke="black" points="331,-36 0,-36 0,0 337,0 337,-30 331,-36"/>
<polyline fill="none" stroke="black" points="331,-36 331,-30"/>
<polyline fill="none" stroke="black" points="337,-30 331,-30"/>
<text xml:space="preserve" text-anchor="middle" x="168.5" y="-20.68" font-family="Helvetica,sans-Serif" font-size="11.00">conséquence : GRO #2 n&#39;accumule rien → perd ses lots</text>
<text xml:space="preserve" text-anchor="middle" x="168.5" y="-6.42" font-family="Helvetica,sans-Serif" font-size="11.00">(le bug ne gâche pas que du CPU : il casse aussi le regroupement)</text>
</g>
<!-- POLL&#45;&gt;GRO -->
<g id="edge3" class="edge">
<title>POLL&#45;&gt;GRO</title>
<path fill="none" stroke="black" stroke-dasharray="5,2" d="M289.29,-86.8C264.89,-73.11 233.85,-55.68 209.34,-41.93"/>
<polygon fill="black" stroke="black" points="211.37,-39.05 200.94,-37.21 207.95,-45.16 211.37,-39.05"/>
</g>
<!-- FIX -->
<g id="node6" class="node">
<title>FIX</title>
<path fill="#bbf7d0" stroke="black" d="M605.25,-36C605.25,-36 377.75,-36 377.75,-36 371.75,-36 365.75,-30 365.75,-24 365.75,-24 365.75,-12 365.75,-12 365.75,-6 371.75,0 377.75,0 377.75,0 605.25,0 605.25,0 611.25,0 617.25,-6 617.25,-12 617.25,-12 617.25,-24 617.25,-24 617.25,-30 611.25,-36 605.25,-36"/>
<text xml:space="preserve" text-anchor="middle" x="491.5" y="-20.3" font-family="Helvetica,sans-Serif" font-size="11.00">✔ correctif : lire rx_queue.tail AVANT de réveiller ;</text>
<text xml:space="preserve" text-anchor="middle" x="491.5" y="-6.8" font-family="Helvetica,sans-Serif" font-size="11.00">ne réveiller QUE SI la tête est déchiffrée</text>
</g>
<!-- POLL&#45;&gt;FIX -->
<g id="edge4" class="edge">
<title>POLL&#45;&gt;FIX</title>
<path fill="none" stroke="black" stroke-dasharray="5,2" d="M369.96,-86.8C394.51,-73.11 425.75,-55.68 450.4,-41.93"/>
<polygon fill="black" stroke="black" points="451.84,-45.13 458.87,-37.21 448.43,-39.02 451.84,-45.13"/>
<text xml:space="preserve" text-anchor="middle" x="460.64" y="-57.75" font-family="Helvetica,sans-Serif" font-size="10.00">ce qu&#39;on change</text>
</g>
</g>
</svg>
