<?xml version="1.0" encoding="UTF-8" standalone="no"?>
<!DOCTYPE svg PUBLIC "-//W3C//DTD SVG 1.1//EN"
 "http://www.w3.org/Graphics/SVG/1.1/DTD/svg11.dtd">
<!-- Generated by graphviz version 15.0.0 (20260523.1842)
 -->
<!-- Title: BUG Pages: 1 -->
<svg width="541pt" height="401pt"
 viewBox="0.00 0.00 541.00 401.00" xmlns="http://www.w3.org/2000/svg" xmlns:xlink="http://www.w3.org/1999/xlink">
<g id="graph0" class="graph" transform="scale(1 1) rotate(0) translate(4 397.25)">
<title>BUG</title>
<polygon fill="white" stroke="none" points="-4,4 -4,-397.25 536.5,-397.25 536.5,4 -4,4"/>
<text xml:space="preserve" text-anchor="middle" x="266.25" y="-374.05" font-family="Helvetica,sans-Serif" font-size="16.00">The bug (EoI) — at the seam &#160;workqueue → 2nd NAPI</text>
<g id="clust1" class="cluster">
<title>cluster_wq</title>
<polygon fill="#fee2e2" stroke="#fee2e2" points="23.88,-272 23.88,-357.75 371.88,-357.75 371.88,-272 23.88,-272"/>
<text xml:space="preserve" text-anchor="middle" x="197.88" y="-338.55" font-family="Helvetica,sans-Serif" font-size="16.00">per&#45;CPU workqueue: decryption IN PARALLEL</text>
</g>
<!-- w0 -->
<g id="node1" class="node">
<title>w0</title>
<ellipse fill="white" stroke="black" cx="117.88" cy="-302.63" rx="65.41" ry="22.63"/>
<text xml:space="preserve" text-anchor="middle" x="117.88" y="-304.18" font-family="Helvetica,sans-Serif" font-size="11.00">core 0: packet 2</text>
<text xml:space="preserve" text-anchor="middle" x="117.88" y="-292.18" font-family="Helvetica,sans-Serif" font-size="11.00">(NOT done yet)</text>
</g>
<!-- w2 -->
<g id="node2" class="node">
<title>w2</title>
<ellipse fill="white" stroke="black" cx="287.88" cy="-302.63" rx="65.41" ry="22.63"/>
<text xml:space="preserve" text-anchor="middle" x="287.88" y="-304.18" font-family="Helvetica,sans-Serif" font-size="11.00">core 2: packet 5</text>
<text xml:space="preserve" text-anchor="middle" x="287.88" y="-292.18" font-family="Helvetica,sans-Serif" font-size="11.00">finishes first</text>
</g>
<!-- SCHED -->
<g id="node3" class="node">
<title>SCHED</title>
<path fill="#fecaca" stroke="#b91c1c" stroke-width="3" d="M393,-228.75C393,-228.75 182.75,-228.75 182.75,-228.75 176.75,-228.75 170.75,-222.75 170.75,-216.75 170.75,-216.75 170.75,-196.75 170.75,-196.75 170.75,-190.75 176.75,-184.75 182.75,-184.75 182.75,-184.75 393,-184.75 393,-184.75 399,-184.75 405,-190.75 405,-196.75 405,-196.75 405,-216.75 405,-216.75 405,-222.75 399,-228.75 393,-228.75"/>
<text xml:space="preserve" text-anchor="middle" x="287.88" y="-214.3" font-family="Helvetica,sans-Serif" font-size="11.00">napi_schedule(&amp;peer&#45;&gt;napi)</text>
<text xml:space="preserve" text-anchor="middle" x="287.88" y="-202.3" font-family="Helvetica,sans-Serif" font-size="11.00">wakes AFTER EVERY packet (unconditional)</text>
<text xml:space="preserve" text-anchor="middle" x="287.88" y="-190.3" font-family="Helvetica,sans-Serif" font-size="11.00">queueing.h:196</text>
</g>
<!-- w2&#45;&gt;SCHED -->
<g id="edge1" class="edge">
<title>w2&#45;&gt;SCHED</title>
<path fill="none" stroke="black" d="M287.88,-279.85C287.88,-268.41 287.88,-254.13 287.88,-241.3"/>
<polygon fill="black" stroke="black" points="291.38,-241.57 287.88,-231.57 284.38,-241.57 291.38,-241.57"/>
<text xml:space="preserve" text-anchor="middle" x="331" y="-250.5" font-family="Helvetica,sans-Serif" font-size="10.00">finishes out of order</text>
</g>
<!-- POLL -->
<g id="node4" class="node">
<title>POLL</title>
<path fill="#dcfce7" stroke="black" d="M456.75,-133.5C456.75,-133.5 119,-133.5 119,-133.5 113,-133.5 107,-127.5 107,-121.5 107,-121.5 107,-99.25 107,-99.25 107,-93.25 113,-87.25 119,-87.25 119,-87.25 456.75,-87.25 456.75,-87.25 462.75,-87.25 468.75,-93.25 468.75,-99.25 468.75,-99.25 468.75,-121.5 468.75,-121.5 468.75,-127.5 462.75,-133.5 456.75,-133.5"/>
<text xml:space="preserve" text-anchor="middle" x="287.88" y="-119.05" font-family="Helvetica,sans-Serif" font-size="11.00">wg_packet_rx_poll looks at the HEAD of the queue</text>
<text xml:space="preserve" text-anchor="middle" x="287.88" y="-107.05" font-family="Helvetica,sans-Serif" font-size="11.00">head = packet 2, still UNCRYPTED → returns EMPTY (work_done = 0)</text>
<text xml:space="preserve" text-anchor="middle" x="287.88" y="-92.8" font-family="Helvetica,sans-Serif" font-size="11.00">receive.c:451&#45;453</text>
</g>
<!-- SCHED&#45;&gt;POLL -->
<g id="edge2" class="edge">
<title>SCHED&#45;&gt;POLL</title>
<path fill="none" stroke="black" d="M287.88,-183.38C287.88,-171.95 287.88,-157.8 287.88,-145.07"/>
<polygon fill="black" stroke="black" points="291.38,-145.42 287.88,-135.42 284.38,-145.42 291.38,-145.42"/>
<text xml:space="preserve" text-anchor="middle" x="302.12" y="-155.25" font-family="Helvetica,sans-Serif" font-size="10.00">wakes</text>
</g>
<!-- GRO -->
<g id="node5" class="node">
<title>GRO</title>
<polygon fill="#fef9c3" stroke="black" points="289.75,-36 0,-36 0,0 295.75,0 295.75,-30 289.75,-36"/>
<polyline fill="none" stroke="black" points="289.75,-36 289.75,-30"/>
<polyline fill="none" stroke="black" points="295.75,-30 289.75,-30"/>
<text xml:space="preserve" text-anchor="middle" x="147.88" y="-20.68" font-family="Helvetica,sans-Serif" font-size="11.00">consequence: GRO #2 batches nothing → loses its groups</text>
<text xml:space="preserve" text-anchor="middle" x="147.88" y="-6.42" font-family="Helvetica,sans-Serif" font-size="11.00">(the bug wastes more than CPU: it also breaks batching)</text>
</g>
<!-- POLL&#45;&gt;GRO -->
<g id="edge3" class="edge">
<title>POLL&#45;&gt;GRO</title>
<path fill="none" stroke="black" stroke-dasharray="5,2" d="M252.91,-86.8C232.07,-73.35 205.66,-56.3 184.53,-42.66"/>
<polygon fill="black" stroke="black" points="186.51,-39.77 176.21,-37.29 182.71,-45.65 186.51,-39.77"/>
</g>
<!-- FIX -->
<g id="node6" class="node">
<title>FIX</title>
<path fill="#bbf7d0" stroke="black" d="M520.5,-36C520.5,-36 337.25,-36 337.25,-36 331.25,-36 325.25,-30 325.25,-24 325.25,-24 325.25,-12 325.25,-12 325.25,-6 331.25,0 337.25,0 337.25,0 520.5,0 520.5,0 526.5,0 532.5,-6 532.5,-12 532.5,-12 532.5,-24 532.5,-24 532.5,-30 526.5,-36 520.5,-36"/>
<text xml:space="preserve" text-anchor="middle" x="428.88" y="-19.55" font-family="Helvetica,sans-Serif" font-size="11.00">fix: read rx_queue.tail BEFORE waking;</text>
<text xml:space="preserve" text-anchor="middle" x="428.88" y="-7.55" font-family="Helvetica,sans-Serif" font-size="11.00">wake ONLY IF the head is decrypted</text>
</g>
<!-- POLL&#45;&gt;FIX -->
<g id="edge4" class="edge">
<title>POLL&#45;&gt;FIX</title>
<path fill="none" stroke="black" stroke-dasharray="5,2" d="M323.09,-86.8C344.08,-73.35 370.68,-56.3 391.96,-42.66"/>
<polygon fill="black" stroke="black" points="393.82,-45.63 400.35,-37.28 390.04,-39.73 393.82,-45.63"/>
<text xml:space="preserve" text-anchor="middle" x="406.63" y="-57.75" font-family="Helvetica,sans-Serif" font-size="10.00">what we change</text>
</g>
</g>
</svg>
