<?xml version="1.0" encoding="UTF-8" standalone="no"?>
<!DOCTYPE svg PUBLIC "-//W3C//DTD SVG 1.1//EN"
 "http://www.w3.org/Graphics/SVG/1.1/DTD/svg11.dtd">
<!-- Generated by graphviz version 15.0.0 (20260523.1842)
 -->
<!-- Title: NAPI Pages: 1 -->
<svg width="584pt" height="751pt"
 viewBox="0.00 0.00 584.00 751.00" xmlns="http://www.w3.org/2000/svg" xmlns:xlink="http://www.w3.org/1999/xlink">
<g id="graph0" class="graph" transform="scale(1 1) rotate(0) translate(4 747.25)">
<title>NAPI</title>
<polygon fill="white" stroke="none" points="-4,4 -4,-747.25 580,-747.25 580,4 -4,4"/>
<text xml:space="preserve" text-anchor="middle" x="288" y="-725.95" font-family="Helvetica,sans-Serif" font-size="14.00">NAPI — « arrête de sonner à chaque lettre, je relèverai la boîte moi&#45;même »</text>
<g id="clust1" class="cluster">
<title>cluster_cycle</title>
<polygon fill="#dbeafe" stroke="#dbeafe" points="8,-229.75 8,-669 568,-669 568,-229.75 8,-229.75"/>
<text xml:space="preserve" text-anchor="middle" x="288" y="-651.7" font-family="Helvetica,sans-Serif" font-size="14.00">AVEC NAPI : sonner UNE fois, puis relever la boîte par lots</text>
</g>
<!-- PB -->
<g id="node1" class="node">
<title>PB</title>
<polygon fill="#fee2e2" stroke="black" points="423.5,-720.25 146.5,-720.25 146.5,-677 429.5,-677 429.5,-714.25 423.5,-720.25"/>
<polyline fill="none" stroke="black" points="423.5,-720.25 423.5,-714.25"/>
<polyline fill="none" stroke="black" points="429.5,-714.25 423.5,-714.25"/>
<text xml:space="preserve" text-anchor="middle" x="288" y="-706.75" font-family="Helvetica,sans-Serif" font-size="10.00">SANS NAPI : le facteur sonne à CHAQUE lettre.</text>
<text xml:space="preserve" text-anchor="middle" x="288" y="-695.5" font-family="Helvetica,sans-Serif" font-size="10.00">À 1 000 000 lettres/s, le CPU ne fait que courir ouvrir la porte</text>
<text xml:space="preserve" text-anchor="middle" x="288" y="-684.25" font-family="Helvetica,sans-Serif" font-size="10.00">(« interrupt storm ») → il s&#39;effondre.</text>
</g>
<!-- IRQ -->
<g id="node2" class="node">
<title>IRQ</title>
<path fill="#bfdbfe" stroke="black" d="M537.52,-638C537.52,-638 145.5,-638 145.5,-638 139.5,-638 128.32,-634.97 123.14,-631.95 123.14,-631.95 36.84,-581.55 36.84,-581.55 31.66,-578.52 32.48,-575.5 38.48,-575.5 38.48,-575.5 430.5,-575.5 430.5,-575.5 436.5,-575.5 447.68,-578.52 452.86,-581.55 452.86,-581.55 539.16,-631.95 539.16,-631.95 544.34,-634.97 543.52,-638 537.52,-638"/>
<text xml:space="preserve" text-anchor="middle" x="288" y="-608.87" font-family="Helvetica,sans-Serif" font-size="10.00">① La sonnette retentit UNE fois</text>
<text xml:space="preserve" text-anchor="middle" x="288" y="-596.87" font-family="Helvetica,sans-Serif" font-size="10.00">(interruption matérielle — puis on COUPE la sonnette)</text>
</g>
<!-- PB&#45;&gt;IRQ -->
<!-- SCH -->
<g id="node3" class="node">
<title>SCH</title>
<ellipse fill="white" stroke="black" cx="288" cy="-509.45" rx="208.07" ry="30.05"/>
<text xml:space="preserve" text-anchor="middle" x="288" y="-517.2" font-family="Helvetica,sans-Serif" font-size="10.00">② On coche « à faire » sur une liste + on lève un drapeau</text>
<text xml:space="preserve" text-anchor="middle" x="288" y="-505.2" font-family="Helvetica,sans-Serif" font-size="10.00">(RIEN ne s&#39;exécute encore !)</text>
<text xml:space="preserve" text-anchor="middle" x="288" y="-493.95" font-family="Helvetica,sans-Serif" font-size="10.00">= napi_schedule &#160;(dev.c:6729 ; poll_list+softirq dev.c:4984,4990)</text>
</g>
<!-- IRQ&#45;&gt;SCH -->
<g id="edge1" class="edge">
<title>IRQ&#45;&gt;SCH</title>
<path fill="none" stroke="black" d="M288,-575.07C288,-567.46 288,-559.2 288,-551.19"/>
<polygon fill="black" stroke="black" points="291.5,-551.28 288,-541.28 284.5,-551.28 291.5,-551.28"/>
</g>
<!-- NRX -->
<g id="node4" class="node">
<title>NRX</title>
<ellipse fill="white" stroke="black" cx="288" cy="-421.3" rx="193.22" ry="22.1"/>
<text xml:space="preserve" text-anchor="middle" x="288" y="-423.42" font-family="Helvetica,sans-Serif" font-size="10.00">③ Plus tard, on va relever la boîte</text>
<text xml:space="preserve" text-anchor="middle" x="288" y="-411.42" font-family="Helvetica,sans-Serif" font-size="10.00">= net_rx_action (créneau softirq) appelle poll() &#160;(dev.c:7914)</text>
</g>
<!-- SCH&#45;&gt;NRX -->
<g id="edge2" class="edge">
<title>SCH&#45;&gt;NRX</title>
<path fill="none" stroke="black" d="M288,-479.28C288,-471.56 288,-463.18 288,-455.28"/>
<polygon fill="black" stroke="black" points="291.5,-455.32 288,-445.32 284.5,-455.32 291.5,-455.32"/>
</g>
<!-- POLL -->
<g id="node5" class="node">
<title>POLL</title>
<ellipse fill="white" stroke="black" cx="288" cy="-341.1" rx="215.49" ry="22.1"/>
<text xml:space="preserve" text-anchor="middle" x="288" y="-343.23" font-family="Helvetica,sans-Serif" font-size="10.00">④ poll() RAMASSE jusqu&#39;à 64 lettres (le « budget »)</text>
<text xml:space="preserve" text-anchor="middle" x="288" y="-331.23" font-family="Helvetica,sans-Serif" font-size="10.00">ex. wg_packet_rx_poll — renvoie combien il en a pris (work_done)</text>
</g>
<!-- NRX&#45;&gt;POLL -->
<g id="edge3" class="edge">
<title>NRX&#45;&gt;POLL</title>
<path fill="none" stroke="black" d="M288,-398.93C288,-391.52 288,-383.02 288,-374.9"/>
<polygon fill="black" stroke="black" points="291.5,-374.96 288,-364.96 284.5,-374.96 291.5,-374.96"/>
</g>
<!-- CMP -->
<g id="node6" class="node">
<title>CMP</title>
<ellipse fill="white" stroke="black" cx="288" cy="-260.38" rx="272.24" ry="22.63"/>
<text xml:space="preserve" text-anchor="middle" x="288" y="-262.88" font-family="Helvetica,sans-Serif" font-size="10.00">⑤ Boîte vide → « j&#39;ai fini, rendors&#45;moi »</text>
<text xml:space="preserve" text-anchor="middle" x="288" y="-250.13" font-family="Helvetica,sans-Serif" font-size="10.00">= napi_complete_done : vide le GRO, se retire, RÉACTIVE la sonnette &#160;(dev.c:6771)</text>
</g>
<!-- POLL&#45;&gt;CMP -->
<g id="edge4" class="edge">
<title>POLL&#45;&gt;CMP</title>
<path fill="none" stroke="black" d="M288,-318.59C288,-311.25 288,-302.86 288,-294.8"/>
<polygon fill="black" stroke="black" points="291.5,-294.92 288,-284.92 284.5,-294.92 291.5,-294.92"/>
</g>
<!-- STRUCT -->
<g id="node7" class="node">
<title>STRUCT</title>
<path fill="#fef9c3" stroke="black" d="M439.25,-201.75C439.25,-201.75 136.75,-201.75 136.75,-201.75 130.75,-201.75 124.75,-195.75 124.75,-189.75 124.75,-189.75 124.75,-170.5 124.75,-170.5 124.75,-164.5 130.75,-158.5 136.75,-158.5 136.75,-158.5 439.25,-158.5 439.25,-158.5 445.25,-158.5 451.25,-164.5 451.25,-170.5 451.25,-170.5 451.25,-189.75 451.25,-189.75 451.25,-195.75 445.25,-201.75 439.25,-201.75"/>
<text xml:space="preserve" text-anchor="middle" x="288" y="-188.25" font-family="Helvetica,sans-Serif" font-size="10.00">NAPI = une FICHE + une FONCTION &#160;(PAS un programme qui tourne)</text>
<text xml:space="preserve" text-anchor="middle" x="288" y="-177" font-family="Helvetica,sans-Serif" font-size="10.00">la fiche : poll (fonction de relève) · budget = 64 · état · liste · zone GRO</text>
<text xml:space="preserve" text-anchor="middle" x="288" y="-165.75" font-family="Helvetica,sans-Serif" font-size="10.00">créée par netif_napi_add &#160;(netdevice.h:2831 → dev.c:7558)</text>
</g>
<!-- CMP&#45;&gt;STRUCT -->
<!-- CTX -->
<g id="node8" class="node">
<title>CTX</title>
<polygon fill="#dcfce7" stroke="black" points="430.25,-122.5 139.75,-122.5 139.75,-80.75 436.25,-80.75 436.25,-116.5 430.25,-122.5"/>
<polyline fill="none" stroke="black" points="430.25,-122.5 430.25,-116.5"/>
<polyline fill="none" stroke="black" points="436.25,-116.5 430.25,-116.5"/>
<text xml:space="preserve" text-anchor="middle" x="288" y="-109" font-family="Helvetica,sans-Serif" font-size="10.00">Où se fait la relève ? dans un CRÉNEAU EMPRUNTÉ (softirq),</text>
<text xml:space="preserve" text-anchor="middle" x="288" y="-97.75" font-family="Helvetica,sans-Serif" font-size="10.00">juste après une sonnette — PAS un employé à soi.</text>
<text xml:space="preserve" text-anchor="middle" x="288" y="-86.5" font-family="Helvetica,sans-Serif" font-size="10.00">(sous très forte charge : le kthread ksoftirqd/N)</text>
</g>
<!-- STRUCT&#45;&gt;CTX -->
<!-- LIFE -->
<g id="node9" class="node">
<title>LIFE</title>
<path fill="#ede9fe" stroke="black" d="M465.12,-44.75C465.12,-44.75 110.87,-44.75 110.87,-44.75 104.88,-44.75 98.88,-38.75 98.88,-32.75 98.88,-32.75 98.88,-12 98.88,-12 98.88,-6 104.88,0 110.88,0 110.88,0 465.12,0 465.12,0 471.12,0 477.12,-6 477.12,-12 477.12,-12 477.12,-32.75 477.12,-32.75 477.12,-38.75 471.12,-44.75 465.12,-44.75"/>
<text xml:space="preserve" text-anchor="middle" x="288" y="-31.25" font-family="Helvetica,sans-Serif" font-size="10.00">Sa vie chez WireGuard (7 étapes) :</text>
<text xml:space="preserve" text-anchor="middle" x="288" y="-20" font-family="Helvetica,sans-Serif" font-size="10.00">créer (netif_napi_add) → activer (napi_enable) → cocher « à faire » (napi_schedule)</text>
<text xml:space="preserve" text-anchor="middle" x="288" y="-7.25" font-family="Helvetica,sans-Serif" font-size="10.00">→ relever (poll) → finir (napi_complete_done) → désactiver → détruire</text>
</g>
<!-- CTX&#45;&gt;LIFE -->
</g>
</svg>
