<?xml version="1.0" encoding="UTF-8" standalone="no"?>
<!DOCTYPE svg PUBLIC "-//W3C//DTD SVG 1.1//EN"
 "http://www.w3.org/Graphics/SVG/1.1/DTD/svg11.dtd">
<!-- Generated by graphviz version 15.0.0 (20260523.1842)
 -->
<!-- Title: PEER Pages: 1 -->
<svg width="855pt" height="425pt"
 viewBox="0.00 0.00 855.00 425.00" xmlns="http://www.w3.org/2000/svg" xmlns:xlink="http://www.w3.org/1999/xlink">
<g id="graph0" class="graph" transform="scale(1 1) rotate(0) translate(4 421.26)">
<title>PEER</title>
<polygon fill="white" stroke="none" points="-4,4 -4,-421.26 851,-421.26 851,4 -4,4"/>
<text xml:space="preserve" text-anchor="middle" x="423.5" y="-399.96" font-family="Helvetica,sans-Serif" font-size="14.00">Le « pair » — VPN : avec qui je parle ? Une wg0, beaucoup de correspondants</text>
<g id="clust1" class="cluster">
<title>cluster_p1</title>
<polygon fill="#ede9fe" stroke="#ede9fe" points="8,-161.44 8,-322.51 510,-322.51 510,-161.44 8,-161.44"/>
<text xml:space="preserve" text-anchor="middle" x="259" y="-305.21" font-family="Helvetica,sans-Serif" font-size="14.00">Correspondant n°1 = une FICHE &#160;(struct wg_peer — peer.h:37)</text>
</g>
<g id="clust2" class="cluster">
<title>cluster_pN</title>
<polygon fill="#ede9fe" stroke="#ede9fe" points="518,-164.41 518,-318.94 839,-318.94 839,-164.41 518,-164.41"/>
<text xml:space="preserve" text-anchor="middle" x="678.5" y="-301.64" font-family="Helvetica,sans-Serif" font-size="14.00">Correspondant n°N &#160;(… jusqu&#39;à 1000 dans l&#39;article)</text>
</g>
<!-- WG -->
<g id="node1" class="node">
<title>WG</title>
<path fill="#bfdbfe" stroke="black" d="M589.5,-394.26C589.5,-394.26 324.5,-394.26 324.5,-394.26 318.5,-394.26 312.5,-388.26 312.5,-382.26 312.5,-382.26 312.5,-370.26 312.5,-370.26 312.5,-364.26 318.5,-358.26 324.5,-358.26 324.5,-358.26 589.5,-358.26 589.5,-358.26 595.5,-358.26 601.5,-364.26 601.5,-370.26 601.5,-370.26 601.5,-382.26 601.5,-382.26 601.5,-388.26 595.5,-394.26 589.5,-394.26"/>
<text xml:space="preserve" text-anchor="middle" x="457" y="-378.01" font-family="Helvetica,sans-Serif" font-size="10.00">wg0 — la « porte du tunnel » (interface VIRTUELLE, logicielle)</text>
<text xml:space="preserve" text-anchor="middle" x="457" y="-366.76" font-family="Helvetica,sans-Serif" font-size="10.00">elle tient la LISTE de tous les correspondants (peer_list)</text>
</g>
<!-- P1 -->
<g id="node2" class="node">
<title>P1</title>
<ellipse fill="white" stroke="black" cx="259" cy="-269.94" rx="243.07" ry="21.57"/>
<text xml:space="preserve" text-anchor="middle" x="259" y="-271.69" font-family="Helvetica,sans-Serif" font-size="10.00">carte d&#39;identité = clé publique &#160;(PAS l&#39;adresse IP, qui peut changer)</text>
<text xml:space="preserve" text-anchor="middle" x="259" y="-260.44" font-family="Helvetica,sans-Serif" font-size="10.00">adresse du moment · IP autorisées (peer.h:64) · clés de session (peer.h:43)</text>
</g>
<!-- WG&#45;&gt;P1 -->
<g id="edge5" class="edge">
<title>WG&#45;&gt;P1</title>
<path fill="none" stroke="black" d="M423.86,-357.8C392.26,-341.15 344.28,-315.87 308.22,-296.87"/>
<polygon fill="black" stroke="black" points="310.2,-293.96 299.73,-292.4 306.94,-300.16 310.2,-293.96"/>
</g>
<!-- PN -->
<g id="node5" class="node">
<title>PN</title>
<ellipse fill="white" stroke="black" cx="655" cy="-269.94" rx="121.3" ry="18"/>
<text xml:space="preserve" text-anchor="middle" x="655" y="-266.07" font-family="Helvetica,sans-Serif" font-size="10.00">clé publique · adresse · IP autorisées · clés</text>
</g>
<!-- WG&#45;&gt;PN -->
<g id="edge6" class="edge">
<title>WG&#45;&gt;PN</title>
<path fill="none" stroke="black" d="M490.14,-357.8C523.95,-339.98 576.52,-312.29 613.18,-292.98"/>
<polygon fill="black" stroke="black" points="614.51,-296.23 621.73,-288.47 611.25,-290.04 614.51,-296.23"/>
<text xml:space="preserve" text-anchor="middle" x="581.39" y="-331.71" font-family="Helvetica,sans-Serif" font-size="9.00">… &#160;N correspondants</text>
</g>
<!-- Q1 -->
<g id="node3" class="node">
<title>Q1</title>
<path fill="#fde68a" stroke="black" d="M351.75,-207.56C351.75,-209.67 310.18,-211.38 259,-211.38 207.82,-211.38 166.25,-209.67 166.25,-207.56 166.25,-207.56 166.25,-173.25 166.25,-173.25 166.25,-171.15 207.82,-169.44 259,-169.44 310.18,-169.44 351.75,-171.15 351.75,-173.25 351.75,-173.25 351.75,-207.56 351.75,-207.56"/>
<path fill="none" stroke="black" d="M351.75,-207.56C351.75,-205.46 310.18,-203.75 259,-203.75 207.82,-203.75 166.25,-205.46 166.25,-207.56"/>
<text xml:space="preserve" text-anchor="middle" x="259" y="-192.16" font-family="Helvetica,sans-Serif" font-size="10.00">SA file d&#39;attente</text>
<text xml:space="preserve" text-anchor="middle" x="259" y="-180.91" font-family="Helvetica,sans-Serif" font-size="10.00">(à livrer DANS L&#39;ORDRE) — peer.h:39</text>
</g>
<!-- P1&#45;&gt;Q1 -->
<!-- N1 -->
<g id="node4" class="node">
<title>N1</title>
<path fill="#dcfce7" stroke="black" d="M474.5,-208.41C474.5,-208.41 395.5,-208.41 395.5,-208.41 389.5,-208.41 383.5,-202.41 383.5,-196.41 383.5,-196.41 383.5,-184.41 383.5,-184.41 383.5,-178.41 389.5,-172.41 395.5,-172.41 395.5,-172.41 474.5,-172.41 474.5,-172.41 480.5,-172.41 486.5,-178.41 486.5,-184.41 486.5,-184.41 486.5,-196.41 486.5,-196.41 486.5,-202.41 480.5,-208.41 474.5,-208.41"/>
<text xml:space="preserve" text-anchor="middle" x="435" y="-192.16" font-family="Helvetica,sans-Serif" font-size="10.00">SA boîte + sonnette</text>
<text xml:space="preserve" text-anchor="middle" x="435" y="-180.91" font-family="Helvetica,sans-Serif" font-size="10.00">(napi) — peer.h:65</text>
</g>
<!-- P1&#45;&gt;N1 -->
<!-- WQ -->
<g id="node8" class="node">
<title>WQ</title>
<path fill="#fee2e2" stroke="black" d="M590.5,-119.88C590.5,-121.98 512.29,-123.69 416,-123.69 319.71,-123.69 241.5,-121.98 241.5,-119.88 241.5,-119.88 241.5,-85.56 241.5,-85.56 241.5,-83.46 319.71,-81.75 416,-81.75 512.29,-81.75 590.5,-83.46 590.5,-85.56 590.5,-85.56 590.5,-119.88 590.5,-119.88"/>
<path fill="none" stroke="black" d="M590.5,-119.88C590.5,-117.77 512.29,-116.06 416,-116.06 319.71,-116.06 241.5,-117.77 241.5,-119.88"/>
<text xml:space="preserve" text-anchor="middle" x="416" y="-104.47" font-family="Helvetica,sans-Serif" font-size="10.00">UN SEUL atelier de déchiffrement, PARTAGÉ par TOUS les correspondants</text>
<text xml:space="preserve" text-anchor="middle" x="416" y="-93.22" font-family="Helvetica,sans-Serif" font-size="10.00">(workqueue par&#45;CPU, packet_crypt_wq — device.c:346)</text>
</g>
<!-- Q1&#45;&gt;WQ -->
<g id="edge7" class="edge">
<title>Q1&#45;&gt;WQ</title>
<path fill="none" stroke="black" stroke-dasharray="5,2" d="M296.21,-169.1C317.85,-157.29 345.35,-142.28 368.54,-129.62"/>
<polygon fill="black" stroke="black" points="370.09,-132.76 377.19,-124.9 366.73,-126.62 370.09,-132.76"/>
<text xml:space="preserve" text-anchor="middle" x="365.08" y="-142.89" font-family="Helvetica,sans-Serif" font-size="9.00">à déchiffrer</text>
</g>
<!-- QN -->
<g id="node6" class="node">
<title>QN</title>
<path fill="#fde68a" stroke="black" d="M619.62,-205.13C619.62,-206.94 598.73,-208.41 573,-208.41 547.27,-208.41 526.38,-206.94 526.38,-205.13 526.38,-205.13 526.38,-175.68 526.38,-175.68 526.38,-173.87 547.27,-172.41 573,-172.41 598.73,-172.41 619.62,-173.87 619.62,-175.68 619.62,-175.68 619.62,-205.13 619.62,-205.13"/>
<path fill="none" stroke="black" d="M619.62,-205.13C619.62,-203.33 598.73,-201.86 573,-201.86 547.27,-201.86 526.38,-203.33 526.38,-205.13"/>
<text xml:space="preserve" text-anchor="middle" x="573" y="-186.53" font-family="Helvetica,sans-Serif" font-size="10.00">SA file (ordonnée)</text>
</g>
<!-- PN&#45;&gt;QN -->
<!-- NN -->
<g id="node7" class="node">
<title>NN</title>
<path fill="#dcfce7" stroke="black" d="M694,-208.41C694,-208.41 664,-208.41 664,-208.41 658,-208.41 652,-202.41 652,-196.41 652,-196.41 652,-184.41 652,-184.41 652,-178.41 658,-172.41 664,-172.41 664,-172.41 694,-172.41 694,-172.41 700,-172.41 706,-178.41 706,-184.41 706,-184.41 706,-196.41 706,-196.41 706,-202.41 700,-208.41 694,-208.41"/>
<text xml:space="preserve" text-anchor="middle" x="679" y="-186.53" font-family="Helvetica,sans-Serif" font-size="10.00">SA napi</text>
</g>
<!-- PN&#45;&gt;NN -->
<!-- QN&#45;&gt;WQ -->
<g id="edge8" class="edge">
<title>QN&#45;&gt;WQ</title>
<path fill="none" stroke="black" stroke-dasharray="5,2" d="M541.98,-172.48C519.5,-160.21 488.69,-143.39 463.17,-129.46"/>
<polygon fill="black" stroke="black" points="465.1,-126.53 454.64,-124.81 461.74,-132.67 465.1,-126.53"/>
</g>
<!-- NOTE -->
<g id="node9" class="node">
<title>NOTE</title>
<polygon fill="#fee2e2" stroke="black" points="622,-44.75 204,-44.75 204,0 628,0 628,-38.75 622,-44.75"/>
<polyline fill="none" stroke="black" points="622,-44.75 622,-38.75"/>
<polyline fill="none" stroke="black" points="628,-38.75 622,-38.75"/>
<text xml:space="preserve" text-anchor="middle" x="416" y="-31.25" font-family="Helvetica,sans-Serif" font-size="10.00">CHAQUE correspondant a SA file + SA sonnette → l&#39;ordre (et le bug) est PAR correspondant.</text>
<text xml:space="preserve" text-anchor="middle" x="416" y="-18.5" font-family="Helvetica,sans-Serif" font-size="10.00">Mais l&#39;atelier est UNIQUE et partagé → plus il y a de correspondants, plus ça s&#39;emmêle.</text>
<text xml:space="preserve" text-anchor="middle" x="416" y="-5.75" font-family="Helvetica,sans-Serif" font-size="10.00">1 correspondant : on ne voit rien. &#160;8 / 16 / 32… : la régression apparaît et grandit.</text>
</g>
<!-- WQ&#45;&gt;NOTE -->
</g>
</svg>
