<?xml version="1.0" encoding="UTF-8" standalone="no"?>
<!DOCTYPE svg PUBLIC "-//W3C//DTD SVG 1.1//EN"
 "http://www.w3.org/Graphics/SVG/1.1/DTD/svg11.dtd">
<!-- Generated by graphviz version 15.0.0 (20260523.1842)
 -->
<!-- Title: GRO Pages: 1 -->
<svg width="2622pt" height="296pt"
 viewBox="0.00 0.00 2622.00 296.00" xmlns="http://www.w3.org/2000/svg" xmlns:xlink="http://www.w3.org/1999/xlink">
<g id="graph0" class="graph" transform="scale(1 1) rotate(0) translate(4 292)">
<title>GRO</title>
<polygon fill="white" stroke="none" points="-4,4 -4,-292 2618.41,-292 2618.41,4 -4,4"/>
<text xml:space="preserve" text-anchor="middle" x="1307.2" y="-270.7" font-family="Helvetica,sans-Serif" font-size="14.00">GRO — agrafer les enveloppes d&#39;un même destinataire, ne monter l&#39;escalier qu&#39;UNE fois</text>
<g id="clust1" class="cluster">
<title>cluster_in</title>
<polygon fill="#dbeafe" stroke="#dbeafe" points="276,-8 276,-257 586.75,-257 586.75,-8 276,-8"/>
<text xml:space="preserve" text-anchor="middle" x="431.37" y="-239.7" font-family="Helvetica,sans-Serif" font-size="14.00">4 enveloppes du MÊME destinataire (même flux)</text>
</g>
<!-- COST -->
<g id="node1" class="node">
<title>COST</title>
<polygon fill="#fee2e2" stroke="black" points="235,-54.88 0,-54.88 0,-13.12 241,-13.12 241,-48.88 235,-54.88"/>
<polyline fill="none" stroke="black" points="235,-54.88 235,-48.88"/>
<polyline fill="none" stroke="black" points="241,-48.88 235,-48.88"/>
<text xml:space="preserve" text-anchor="middle" x="120.5" y="-41.38" font-family="Helvetica,sans-Serif" font-size="10.00">Monter un paquet dans la pile = un « péage » FIXE,</text>
<text xml:space="preserve" text-anchor="middle" x="120.5" y="-30.12" font-family="Helvetica,sans-Serif" font-size="10.00">payé à CHAQUE paquet (peu importe sa taille).</text>
<text xml:space="preserve" text-anchor="middle" x="120.5" y="-18.88" font-family="Helvetica,sans-Serif" font-size="10.00">40 petits paquets = 40 péages = embouteillage.</text>
</g>
<!-- p1 -->
<g id="node2" class="node">
<title>p1</title>
<ellipse fill="white" stroke="black" cx="430.87" cy="-34" rx="40.53" ry="18"/>
<text xml:space="preserve" text-anchor="middle" x="430.87" y="-30.12" font-family="Helvetica,sans-Serif" font-size="10.00">enveloppe 1</text>
</g>
<!-- COST&#45;&gt;p1 -->
<!-- GRO -->
<g id="node6" class="node">
<title>GRO</title>
<path fill="#dcfce7" stroke="black" d="M974.67,-125.21C974.67,-125.21 906.11,-150.88 906.11,-150.88 900.49,-152.98 888.87,-155.09 882.87,-155.09 882.87,-155.09 724.79,-155.09 724.79,-155.09 718.79,-155.09 707.17,-152.98 701.55,-150.88 701.55,-150.88 632.99,-125.21 632.99,-125.21 627.37,-123.1 627.37,-118.9 632.99,-116.79 632.99,-116.79 701.55,-91.12 701.55,-91.12 707.17,-89.02 718.79,-86.91 724.79,-86.91 724.79,-86.91 882.87,-86.91 882.87,-86.91 888.87,-86.91 900.49,-89.02 906.11,-91.12 906.11,-91.12 974.67,-116.79 974.67,-116.79 980.29,-118.9 980.29,-123.1 974.67,-125.21"/>
<text xml:space="preserve" text-anchor="middle" x="803.83" y="-128.38" font-family="Helvetica,sans-Serif" font-size="10.00">On les AGRAFE au lieu de monter tout de suite</text>
<text xml:space="preserve" text-anchor="middle" x="803.83" y="-117.12" font-family="Helvetica,sans-Serif" font-size="10.00">= napi_gro_receive (les empile dans la napi)</text>
<text xml:space="preserve" text-anchor="middle" x="803.83" y="-105.88" font-family="Helvetica,sans-Serif" font-size="10.00">netdevice.h:4251 ; chez WG : receive.c:411</text>
</g>
<!-- p1&#45;&gt;GRO -->
<g id="edge2" class="edge">
<title>p1&#45;&gt;GRO</title>
<path fill="none" stroke="black" d="M469.28,-40.17C500.75,-45.56 546.87,-53.93 586.75,-63 619.93,-70.55 655.7,-79.72 688.4,-88.52"/>
<polygon fill="black" stroke="black" points="687.34,-91.86 697.91,-91.1 689.17,-85.1 687.34,-91.86"/>
</g>
<!-- p2 -->
<g id="node3" class="node">
<title>p2</title>
<ellipse fill="white" stroke="black" cx="430.87" cy="-92" rx="40.53" ry="18"/>
<text xml:space="preserve" text-anchor="middle" x="430.87" y="-88.12" font-family="Helvetica,sans-Serif" font-size="10.00">enveloppe 2</text>
</g>
<!-- p2&#45;&gt;GRO -->
<g id="edge3" class="edge">
<title>p2&#45;&gt;GRO</title>
<path fill="none" stroke="black" d="M471.22,-95.08C511.94,-98.26 578.26,-103.44 640.92,-108.34"/>
<polygon fill="black" stroke="black" points="640.41,-111.81 650.66,-109.1 640.96,-104.83 640.41,-111.81"/>
</g>
<!-- p3 -->
<g id="node4" class="node">
<title>p3</title>
<ellipse fill="white" stroke="black" cx="430.87" cy="-150" rx="40.53" ry="18"/>
<text xml:space="preserve" text-anchor="middle" x="430.87" y="-146.12" font-family="Helvetica,sans-Serif" font-size="10.00">enveloppe 3</text>
</g>
<!-- p3&#45;&gt;GRO -->
<g id="edge4" class="edge">
<title>p3&#45;&gt;GRO</title>
<path fill="none" stroke="black" d="M471.22,-146.92C511.94,-143.74 578.26,-138.56 640.92,-133.66"/>
<polygon fill="black" stroke="black" points="640.96,-137.17 650.66,-132.9 640.41,-130.19 640.96,-137.17"/>
</g>
<!-- p4 -->
<g id="node5" class="node">
<title>p4</title>
<ellipse fill="white" stroke="black" cx="430.87" cy="-208" rx="40.53" ry="18"/>
<text xml:space="preserve" text-anchor="middle" x="430.87" y="-204.12" font-family="Helvetica,sans-Serif" font-size="10.00">enveloppe 4</text>
</g>
<!-- p4&#45;&gt;GRO -->
<g id="edge5" class="edge">
<title>p4&#45;&gt;GRO</title>
<path fill="none" stroke="black" d="M469.28,-201.83C500.75,-196.44 546.87,-188.07 586.75,-179 619.93,-171.45 655.7,-162.28 688.4,-153.48"/>
<polygon fill="black" stroke="black" points="689.17,-156.9 697.91,-150.9 687.34,-150.14 689.17,-156.9"/>
</g>
<!-- BIG -->
<g id="node7" class="node">
<title>BIG</title>
<path fill="#bbf7d0" stroke="black" d="M1113.91,-139C1113.91,-139 1040.91,-139 1040.91,-139 1034.91,-139 1028.91,-133 1028.91,-127 1028.91,-127 1028.91,-115 1028.91,-115 1028.91,-109 1034.91,-103 1040.91,-103 1040.91,-103 1113.91,-103 1113.91,-103 1119.91,-103 1125.91,-109 1125.91,-115 1125.91,-115 1125.91,-127 1125.91,-127 1125.91,-133 1119.91,-139 1113.91,-139"/>
<text xml:space="preserve" text-anchor="middle" x="1077.41" y="-122.75" font-family="Helvetica,sans-Serif" font-size="10.00">UN seul gros colis</text>
<text xml:space="preserve" text-anchor="middle" x="1077.41" y="-111.5" font-family="Helvetica,sans-Serif" font-size="10.00">(1+2+3+4)</text>
</g>
<!-- GRO&#45;&gt;BIG -->
<g id="edge6" class="edge">
<title>GRO&#45;&gt;BIG</title>
<path fill="none" stroke="black" d="M987.11,-121C997.67,-121 1007.8,-121 1017.21,-121"/>
<polygon fill="black" stroke="black" points="1017.2,-124.5 1027.2,-121 1017.2,-117.5 1017.2,-124.5"/>
</g>
<!-- FLUSH -->
<g id="node8" class="node">
<title>FLUSH</title>
<path fill="#dcfce7" stroke="black" d="M1416.66,-139C1416.66,-139 1180.91,-139 1180.91,-139 1174.91,-139 1168.91,-133 1168.91,-127 1168.91,-127 1168.91,-115 1168.91,-115 1168.91,-109 1174.91,-103 1180.91,-103 1180.91,-103 1416.66,-103 1416.66,-103 1422.66,-103 1428.66,-109 1428.66,-115 1428.66,-115 1428.66,-127 1428.66,-127 1428.66,-133 1422.66,-139 1416.66,-139"/>
<text xml:space="preserve" text-anchor="middle" x="1298.78" y="-123.5" font-family="Helvetica,sans-Serif" font-size="10.00">Quand la relève finit : on monte le colis</text>
<text xml:space="preserve" text-anchor="middle" x="1298.78" y="-112.25" font-family="Helvetica,sans-Serif" font-size="10.00">= napi_complete_done → gro_flush_normal (dev.c:6803)</text>
</g>
<!-- BIG&#45;&gt;FLUSH -->
<g id="edge7" class="edge">
<title>BIG&#45;&gt;FLUSH</title>
<path fill="none" stroke="black" d="M1126.28,-121C1135.92,-121 1146.51,-121 1157.55,-121"/>
<polygon fill="black" stroke="black" points="1157.21,-124.5 1167.21,-121 1157.21,-117.5 1157.21,-124.5"/>
</g>
<!-- STACK -->
<g id="node9" class="node">
<title>STACK</title>
<path fill="#eeeeee" stroke="black" d="M1643.66,-141.88C1643.66,-141.88 1483.66,-141.88 1483.66,-141.88 1477.66,-141.88 1471.66,-135.88 1471.66,-129.88 1471.66,-129.88 1471.66,-112.12 1471.66,-112.12 1471.66,-106.12 1477.66,-100.12 1483.66,-100.12 1483.66,-100.12 1643.66,-100.12 1643.66,-100.12 1649.66,-100.12 1655.66,-106.12 1655.66,-112.12 1655.66,-112.12 1655.66,-129.88 1655.66,-129.88 1655.66,-135.88 1649.66,-141.88 1643.66,-141.88"/>
<text xml:space="preserve" text-anchor="middle" x="1563.66" y="-128.38" font-family="Helvetica,sans-Serif" font-size="10.00">pile / application</text>
<text xml:space="preserve" text-anchor="middle" x="1563.66" y="-117.12" font-family="Helvetica,sans-Serif" font-size="10.00">UN seul voyage d&#39;escalier au lieu de 4</text>
<text xml:space="preserve" text-anchor="middle" x="1563.66" y="-105.88" font-family="Helvetica,sans-Serif" font-size="10.00">(1 péage au lieu de 4)</text>
</g>
<!-- FLUSH&#45;&gt;STACK -->
<g id="edge8" class="edge">
<title>FLUSH&#45;&gt;STACK</title>
<path fill="none" stroke="black" d="M1428.91,-121C1439.29,-121 1449.68,-121 1459.84,-121"/>
<polygon fill="black" stroke="black" points="1459.68,-124.5 1469.68,-121 1459.68,-117.5 1459.68,-124.5"/>
</g>
<!-- FRONTS -->
<g id="node10" class="node">
<title>FRONTS</title>
<polygon fill="#fef9c3" stroke="black" points="2207.41,-141.88 1698.66,-141.88 1698.66,-100.12 2213.41,-100.12 2213.41,-135.88 2207.41,-141.88"/>
<polyline fill="none" stroke="black" points="2207.41,-141.88 2207.41,-135.88"/>
<polyline fill="none" stroke="black" points="2213.41,-135.88 2207.41,-135.88"/>
<text xml:space="preserve" text-anchor="middle" x="1956.03" y="-128.38" font-family="Helvetica,sans-Serif" font-size="10.00">DEUX moments GRO chez WireGuard :</text>
<text xml:space="preserve" text-anchor="middle" x="1956.03" y="-117.12" font-family="Helvetica,sans-Serif" font-size="10.00">Front #1 = enveloppe EXTERNE chiffrée (côté carte) — CONDITIONNEL, WG ne l&#39;active pas (udp_offload.c:800)</text>
<text xml:space="preserve" text-anchor="middle" x="1956.03" y="-105.88" font-family="Helvetica,sans-Serif" font-size="10.00">Front #2 = lettre INTERNE déchiffrée (côté wg0) — fait EXPLICITEMENT par WG (receive.c:411)</text>
</g>
<!-- STACK&#45;&gt;FRONTS -->
<!-- BUG -->
<g id="node11" class="node">
<title>BUG</title>
<polygon fill="#fee2e2" stroke="black" points="2608.41,-139 2256.41,-139 2256.41,-103 2614.41,-103 2614.41,-133 2608.41,-139"/>
<polyline fill="none" stroke="black" points="2608.41,-139 2608.41,-133"/>
<polyline fill="none" stroke="black" points="2614.41,-133 2608.41,-133"/>
<text xml:space="preserve" text-anchor="middle" x="2435.41" y="-123.5" font-family="Helvetica,sans-Serif" font-size="10.00">Lien avec le bug : si on « ferme le colis » trop tôt (réveil à vide, work_done=0),</text>
<text xml:space="preserve" text-anchor="middle" x="2435.41" y="-112.25" font-family="Helvetica,sans-Serif" font-size="10.00">on n&#39;a rien agrafé → GRO #2 perd ses gros colis → on perd la performance.</text>
</g>
<!-- FRONTS&#45;&gt;BUG -->
</g>
</svg>
