<?xml version="1.0" encoding="UTF-8" standalone="no"?>
<!DOCTYPE svg PUBLIC "-//W3C//DTD SVG 1.1//EN"
 "http://www.w3.org/Graphics/SVG/1.1/DTD/svg11.dtd">
<!-- Generated by graphviz version 15.0.0 (20260523.1842)
 -->
<!-- Title: WQ Pages: 1 -->
<svg width="758pt" height="459pt"
 viewBox="0.00 0.00 758.00 459.00" xmlns="http://www.w3.org/2000/svg" xmlns:xlink="http://www.w3.org/1999/xlink">
<g id="graph0" class="graph" transform="scale(1 1) rotate(0) translate(4 455.07)">
<title>WQ</title>
<polygon fill="white" stroke="none" points="-4,4 -4,-455.07 754,-455.07 754,4 -4,4"/>
<text xml:space="preserve" text-anchor="middle" x="375" y="-433.77" font-family="Helvetica,sans-Serif" font-size="14.00">Workqueue — l&#39;accueil ne peut pas traiter une tâche longue : on confie au bureau à l&#39;arrière</text>
<g id="clust1" class="cluster">
<title>cluster_workers</title>
<polygon fill="#fee2e2" stroke="#fee2e2" points="8,-144.75 8,-226.88 691,-226.88 691,-144.75 8,-144.75"/>
<text xml:space="preserve" text-anchor="middle" x="349.5" y="-209.58" font-family="Helvetica,sans-Serif" font-size="14.00">de VRAIS employés (threads), UN PAR CŒUR — ils ont le temps (peuvent dormir)</text>
</g>
<!-- SOFT -->
<g id="node1" class="node">
<title>SOFT</title>
<path fill="#dbeafe" stroke="black" d="M579.38,-428.07C579.38,-428.07 358.62,-428.07 358.62,-428.07 352.62,-428.07 346.62,-422.07 346.62,-416.07 346.62,-416.07 346.62,-396.82 346.62,-396.82 346.62,-390.82 352.62,-384.82 358.62,-384.82 358.62,-384.82 579.38,-384.82 579.38,-384.82 585.38,-384.82 591.38,-390.82 591.38,-396.82 591.38,-396.82 591.38,-416.07 591.38,-416.07 591.38,-422.07 585.38,-428.07 579.38,-428.07"/>
<text xml:space="preserve" text-anchor="middle" x="469" y="-414.57" font-family="Helvetica,sans-Serif" font-size="10.00">L&#39;ACCUEIL (softirq NET_RX)</text>
<text xml:space="preserve" text-anchor="middle" x="469" y="-403.32" font-family="Helvetica,sans-Serif" font-size="10.00">interdit d&#39;y rester longtemps / d&#39;y « faire une pause »</text>
<text xml:space="preserve" text-anchor="middle" x="469" y="-392.07" font-family="Helvetica,sans-Serif" font-size="10.00">→ on NE PEUT PAS déchiffrer ici (calcul trop long)</text>
</g>
<!-- HAND -->
<g id="node2" class="node">
<title>HAND</title>
<path fill="#dbeafe" stroke="black" d="M563.25,-348.82C563.25,-348.82 374.75,-348.82 374.75,-348.82 368.75,-348.82 362.75,-342.82 362.75,-336.82 362.75,-336.82 362.75,-324.82 362.75,-324.82 362.75,-318.82 368.75,-312.82 374.75,-312.82 374.75,-312.82 563.25,-312.82 563.25,-312.82 569.25,-312.82 575.25,-318.82 575.25,-324.82 575.25,-324.82 575.25,-336.82 575.25,-336.82 575.25,-342.82 569.25,-348.82 563.25,-348.82"/>
<text xml:space="preserve" text-anchor="middle" x="469" y="-332.57" font-family="Helvetica,sans-Serif" font-size="10.00">On POSE le dossier sur un bureau précis</text>
<text xml:space="preserve" text-anchor="middle" x="469" y="-321.32" font-family="Helvetica,sans-Serif" font-size="10.00">= queue_work_on(cpu, …) — queueing.h:171</text>
</g>
<!-- SOFT&#45;&gt;HAND -->
<g id="edge1" class="edge">
<title>SOFT&#45;&gt;HAND</title>
<path fill="none" stroke="black" d="M469,-384.54C469,-377 469,-368.36 469,-360.28"/>
<polygon fill="black" stroke="black" points="472.5,-360.56 469,-350.56 465.5,-360.56 472.5,-360.56"/>
</g>
<!-- WQ -->
<g id="node3" class="node">
<title>WQ</title>
<path fill="#fee2e2" stroke="black" d="M750,-273.01C750,-275.11 624.05,-276.82 469,-276.82 313.95,-276.82 188,-275.11 188,-273.01 188,-273.01 188,-238.7 188,-238.7 188,-236.59 313.95,-234.88 469,-234.88 624.05,-234.88 750,-236.59 750,-238.7 750,-238.7 750,-273.01 750,-273.01"/>
<path fill="none" stroke="black" d="M750,-273.01C750,-270.9 624.05,-269.2 469,-269.2 313.95,-269.2 188,-270.9 188,-273.01"/>
<text xml:space="preserve" text-anchor="middle" x="469" y="-257.6" font-family="Helvetica,sans-Serif" font-size="10.00">LE BUREAU À L&#39;ARRIÈRE (workqueue packet_crypt_wq — device.c:346)</text>
<text xml:space="preserve" text-anchor="middle" x="469" y="-246.35" font-family="Helvetica,sans-Serif" font-size="10.00">PERCPU = un employé par cœur · CPU_INTENSIVE = ne pénalise pas les autres · MEM_RECLAIM = employé de secours</text>
</g>
<!-- HAND&#45;&gt;WQ -->
<g id="edge2" class="edge">
<title>HAND&#45;&gt;WQ</title>
<path fill="none" stroke="black" d="M469,-312.53C469,-305.31 469,-296.69 469,-288.41"/>
<polygon fill="black" stroke="black" points="472.5,-288.64 469,-278.64 465.5,-288.64 472.5,-288.64"/>
</g>
<!-- w0 -->
<g id="node4" class="node">
<title>w0</title>
<ellipse fill="white" stroke="black" cx="197" cy="-174.32" rx="181.02" ry="21.57"/>
<text xml:space="preserve" text-anchor="middle" x="197" y="-176.07" font-family="Helvetica,sans-Serif" font-size="10.00">employé cœur 0</text>
<text xml:space="preserve" text-anchor="middle" x="197" y="-164.82" font-family="Helvetica,sans-Serif" font-size="10.00">déchiffre — wg_packet_decrypt_worker (receive.c:493)</text>
</g>
<!-- WQ&#45;&gt;w0 -->
<g id="edge3" class="edge">
<title>WQ&#45;&gt;w0</title>
<path fill="none" stroke="black" d="M399.31,-234.47C361.18,-223.32 313.85,-209.48 274.55,-197.99"/>
<polygon fill="black" stroke="black" points="275.73,-194.69 265.15,-195.24 273.77,-201.41 275.73,-194.69"/>
</g>
<!-- w1 -->
<g id="node5" class="node">
<title>w1</title>
<ellipse fill="white" stroke="black" cx="469" cy="-174.32" rx="61.7" ry="21.57"/>
<text xml:space="preserve" text-anchor="middle" x="469" y="-176.07" font-family="Helvetica,sans-Serif" font-size="10.00">employé cœur 1</text>
<text xml:space="preserve" text-anchor="middle" x="469" y="-164.82" font-family="Helvetica,sans-Serif" font-size="10.00">déchiffre</text>
</g>
<!-- WQ&#45;&gt;w1 -->
<g id="edge4" class="edge">
<title>WQ&#45;&gt;w1</title>
<path fill="none" stroke="black" d="M469,-234.78C469,-226.5 469,-216.69 469,-207.45"/>
<polygon fill="black" stroke="black" points="472.5,-207.73 469,-197.73 465.5,-207.73 472.5,-207.73"/>
</g>
<!-- w2 -->
<g id="node6" class="node">
<title>w2</title>
<ellipse fill="white" stroke="black" cx="621" cy="-174.32" rx="61.7" ry="21.57"/>
<text xml:space="preserve" text-anchor="middle" x="621" y="-176.07" font-family="Helvetica,sans-Serif" font-size="10.00">employé cœur 2</text>
<text xml:space="preserve" text-anchor="middle" x="621" y="-164.82" font-family="Helvetica,sans-Serif" font-size="10.00">déchiffre</text>
</g>
<!-- WQ&#45;&gt;w2 -->
<g id="edge5" class="edge">
<title>WQ&#45;&gt;w2</title>
<path fill="none" stroke="black" d="M528.52,-234.55C534.17,-232.15 539.75,-229.58 545,-226.88 559.35,-219.51 574.24,-209.91 586.99,-200.99"/>
<polygon fill="black" stroke="black" points="588.94,-203.9 595.05,-195.24 584.87,-198.2 588.94,-203.9"/>
</g>
<!-- OOO -->
<g id="node7" class="node">
<title>OOO</title>
<polygon fill="#fef9c3" stroke="black" points="630.38,-116.75 301.62,-116.75 301.62,-72 636.38,-72 636.38,-110.75 630.38,-116.75"/>
<polyline fill="none" stroke="black" points="630.38,-116.75 630.38,-110.75"/>
<polyline fill="none" stroke="black" points="636.38,-110.75 630.38,-110.75"/>
<text xml:space="preserve" text-anchor="middle" x="469" y="-103.25" font-family="Helvetica,sans-Serif" font-size="10.00">ils déchiffrent EN MÊME TEMPS → ils finissent DANS LE DÉSORDRE</text>
<text xml:space="preserve" text-anchor="middle" x="469" y="-90.5" font-family="Helvetica,sans-Serif" font-size="10.00">(le cœur 2 finit le n°5 avant que le cœur 0 finisse le n°2)</text>
<text xml:space="preserve" text-anchor="middle" x="469" y="-79.25" font-family="Helvetica,sans-Serif" font-size="10.00">← c&#39;est la GRAINE du bug</text>
</g>
<!-- w0&#45;&gt;OOO -->
<g id="edge6" class="edge">
<title>w0&#45;&gt;OOO</title>
<path fill="none" stroke="black" d="M264.59,-153.95C300.25,-143.73 344.41,-131.08 382.54,-120.15"/>
<polygon fill="black" stroke="black" points="383.02,-123.65 391.67,-117.53 381.09,-116.92 383.02,-123.65"/>
</g>
<!-- w1&#45;&gt;OOO -->
<g id="edge7" class="edge">
<title>w1&#45;&gt;OOO</title>
<path fill="none" stroke="black" d="M469,-152.43C469,-145.1 469,-136.67 469,-128.58"/>
<polygon fill="black" stroke="black" points="472.5,-128.65 469,-118.65 465.5,-128.65 472.5,-128.65"/>
</g>
<!-- w2&#45;&gt;OOO -->
<g id="edge8" class="edge">
<title>w2&#45;&gt;OOO</title>
<path fill="none" stroke="black" d="M587.27,-156.02C568.01,-146.15 543.45,-133.55 521.71,-122.4"/>
<polygon fill="black" stroke="black" points="523.46,-119.37 512.97,-117.92 520.27,-125.6 523.46,-119.37"/>
</g>
<!-- SCHED -->
<g id="node8" class="node">
<title>SCHED</title>
<path fill="#dcfce7" stroke="black" d="M613.5,-36C613.5,-36 324.5,-36 324.5,-36 318.5,-36 312.5,-30 312.5,-24 312.5,-24 312.5,-12 312.5,-12 312.5,-6 318.5,0 324.5,0 324.5,0 613.5,0 613.5,0 619.5,0 625.5,-6 625.5,-12 625.5,-12 625.5,-24 625.5,-24 625.5,-30 619.5,-36 613.5,-36"/>
<text xml:space="preserve" text-anchor="middle" x="469" y="-20.5" font-family="Helvetica,sans-Serif" font-size="10.00">chaque employé qui a fini SONNE la boîte du correspondant</text>
<text xml:space="preserve" text-anchor="middle" x="469" y="-9.25" font-family="Helvetica,sans-Serif" font-size="10.00">= napi_schedule(&amp;peer&#45;&gt;napi) — queueing.h:196 → (étape suivante)</text>
</g>
<!-- OOO&#45;&gt;SCHED -->
<g id="edge9" class="edge">
<title>OOO&#45;&gt;SCHED</title>
<path fill="none" stroke="black" d="M469,-71.86C469,-64.25 469,-55.57 469,-47.47"/>
<polygon fill="black" stroke="black" points="472.5,-47.73 469,-37.73 465.5,-47.73 472.5,-47.73"/>
</g>
</g>
</svg>
