<?xml version="1.0" encoding="UTF-8" standalone="no"?>
<!DOCTYPE svg PUBLIC "-//W3C//DTD SVG 1.1//EN"
 "http://www.w3.org/Graphics/SVG/1.1/DTD/svg11.dtd">
<!-- Generated by graphviz version 15.0.0 (20260523.1842)
 -->
<!-- Title: WG_RX Pages: 1 -->
<svg width="862pt" height="1385pt"
 viewBox="0.00 0.00 862.00 1385.00" xmlns="http://www.w3.org/2000/svg" xmlns:xlink="http://www.w3.org/1999/xlink">
<g id="graph0" class="graph" transform="scale(1 1) rotate(0) translate(4 1380.96)">
<title>WG_RX</title>
<polygon fill="white" stroke="none" points="-4,4 -4,-1380.96 858,-1380.96 858,4 -4,4"/>
<g id="clust1" class="cluster">
<title>cluster0</title>
<polygon fill="#eeeeee" stroke="#eeeeee" points="91,-1292.46 91,-1368.96 307,-1368.96 307,-1292.46 91,-1292.46"/>
<text xml:space="preserve" text-anchor="middle" x="199" y="-1351.66" font-family="Helvetica,sans-Serif" font-size="14.00">① Matériel + IRQ</text>
</g>
<g id="clust2" class="cluster">
<title>cluster1</title>
<polygon fill="#dbeafe" stroke="#dbeafe" points="8,-709.75 8,-1261.21 387,-1261.21 387,-709.75 8,-709.75"/>
<text xml:space="preserve" text-anchor="middle" x="197.5" y="-1243.91" font-family="Helvetica,sans-Serif" font-size="14.00">② Softirq NET_RX — NAPI pilote NIC (EXTERNES chiffrés)</text>
</g>
<g id="clust3" class="cluster">
<title>cluster_d</title>
<polygon fill="#fef9c3" stroke="#fef9c3" points="104,-570.84 104,-670.25 535,-670.25 535,-570.84 104,-570.84"/>
<text xml:space="preserve" text-anchor="middle" x="319.5" y="-652.95" font-family="Helvetica,sans-Serif" font-size="14.00">◆ Structures de données partagées</text>
</g>
<g id="clust4" class="cluster">
<title>cluster2</title>
<polygon fill="#fee2e2" stroke="#fee2e2" points="543,-581.54 543,-970.4 846,-970.4 846,-581.54 543,-581.54"/>
<text xml:space="preserve" text-anchor="middle" x="694.5" y="-953.1" font-family="Helvetica,sans-Serif" font-size="14.00">③ Workqueue wg&#45;crypt — un worker PAR CPU</text>
</g>
<g id="clust5" class="cluster">
<title>cluster3</title>
<polygon fill="#dcfce7" stroke="#dcfce7" points="378,-105.5 378,-549.84 827,-549.84 827,-105.5 378,-105.5"/>
<text xml:space="preserve" text-anchor="middle" x="602.5" y="-532.54" font-family="Helvetica,sans-Serif" font-size="14.00">④ Softirq NET_RX — NAPI WireGuard par pair (INTERNES déchiffrés)</text>
</g>
<g id="clust6" class="cluster">
<title>cluster4</title>
<polygon fill="#eeeeee" stroke="#eeeeee" points="456,-8 456,-84.5 622,-84.5 622,-8 456,-8"/>
<text xml:space="preserve" text-anchor="middle" x="539" y="-67.2" font-family="Helvetica,sans-Serif" font-size="14.00">⑤ Hôte</text>
</g>
<!-- H -->
<g id="node1" class="node">
<title>H</title>
<path fill="#dddddd" stroke="black" d="M287.42,-1336.46C287.42,-1336.46 151.68,-1336.46 151.68,-1336.46 145.68,-1336.46 135.16,-1332.5 130.65,-1328.55 130.65,-1328.55 107.61,-1308.37 107.61,-1308.37 103.1,-1304.41 104.58,-1300.46 110.58,-1300.46 110.58,-1300.46 246.32,-1300.46 246.32,-1300.46 252.32,-1300.46 262.84,-1304.41 267.35,-1308.37 267.35,-1308.37 290.39,-1328.55 290.39,-1328.55 294.9,-1332.5 293.42,-1336.46 287.42,-1336.46"/>
<text xml:space="preserve" text-anchor="middle" x="199" y="-1314.58" font-family="Helvetica,sans-Serif" font-size="10.00">NIC reçoit UDP chiffré</text>
</g>
<!-- PNIC -->
<g id="node2" class="node">
<title>PNIC</title>
<ellipse fill="white" stroke="black" cx="199" cy="-1210.71" rx="57.84" ry="18"/>
<text xml:space="preserve" text-anchor="middle" x="199" y="-1206.83" font-family="Helvetica,sans-Serif" font-size="10.00">poll() du pilote NIC</text>
</g>
<!-- H&#45;&gt;PNIC -->
<g id="edge1" class="edge">
<title>H&#45;&gt;PNIC</title>
<path fill="none" stroke="black" stroke-width="2" d="M199,-1300C199,-1283.85 199,-1259.54 199,-1240.52"/>
<polygon fill="black" stroke="black" stroke-width="2" points="202.5,-1242.22 199,-1232.22 195.5,-1242.22 202.5,-1242.22"/>
<text xml:space="preserve" text-anchor="middle" x="223.75" y="-1271.91" font-family="Helvetica,sans-Serif" font-size="9.00">IRQ→softirq</text>
</g>
<!-- GRO1 -->
<g id="node3" class="node">
<title>GRO1</title>
<path fill="#bfdbfe" stroke="black" d="M302.8,-1123.77C302.8,-1123.77 266.35,-1145.55 266.35,-1145.55 261.2,-1148.63 250.05,-1151.71 244.05,-1151.71 244.05,-1151.71 153.95,-1151.71 153.95,-1151.71 147.95,-1151.71 136.8,-1148.63 131.65,-1145.55 131.65,-1145.55 95.2,-1123.77 95.2,-1123.77 90.05,-1120.7 90.05,-1114.54 95.2,-1111.46 95.2,-1111.46 131.65,-1089.69 131.65,-1089.69 136.8,-1086.61 147.95,-1083.53 153.95,-1083.53 153.95,-1083.53 244.05,-1083.53 244.05,-1083.53 250.05,-1083.53 261.2,-1086.61 266.35,-1089.69 266.35,-1089.69 302.8,-1111.46 302.8,-1111.46 307.95,-1114.54 307.95,-1120.7 302.8,-1123.77"/>
<text xml:space="preserve" text-anchor="middle" x="199" y="-1124.99" font-family="Helvetica,sans-Serif" font-size="10.00">GRO #1 (CONDITIONNEL)</text>
<text xml:space="preserve" text-anchor="middle" x="199" y="-1113.74" font-family="Helvetica,sans-Serif" font-size="10.00">udp_gro_receive</text>
<text xml:space="preserve" text-anchor="middle" x="199" y="-1102.49" font-family="Helvetica,sans-Serif" font-size="10.00">udp_offload.c:785 / :800&#45;815</text>
</g>
<!-- PNIC&#45;&gt;GRO1 -->
<g id="edge2" class="edge">
<title>PNIC&#45;&gt;GRO1</title>
<path fill="none" stroke="black" d="M199,-1192.58C199,-1184.17 199,-1173.62 199,-1163.15"/>
<polygon fill="black" stroke="black" points="202.5,-1163.42 199,-1153.42 195.5,-1163.42 202.5,-1163.42"/>
</g>
<!-- ENCAP -->
<g id="node4" class="node">
<title>ENCAP</title>
<ellipse fill="white" stroke="black" cx="199" cy="-1020.96" rx="88.21" ry="21.57"/>
<text xml:space="preserve" text-anchor="middle" x="199" y="-1022.71" font-family="Helvetica,sans-Serif" font-size="10.00">encap_rcv = wg_receive</text>
<text xml:space="preserve" text-anchor="middle" x="199" y="-1011.46" font-family="Helvetica,sans-Serif" font-size="10.00">socket.c:355&#45;356 &#45;&gt; :316</text>
</g>
<!-- GRO1&#45;&gt;ENCAP -->
<g id="edge3" class="edge">
<title>GRO1&#45;&gt;ENCAP</title>
<path fill="none" stroke="black" d="M199,-1083.25C199,-1073.82 199,-1063.57 199,-1054.21"/>
<polygon fill="black" stroke="black" points="202.5,-1054.46 199,-1044.46 195.5,-1054.46 202.5,-1054.46"/>
</g>
<!-- RECV -->
<g id="node5" class="node">
<title>RECV</title>
<ellipse fill="white" stroke="black" cx="199" cy="-916.33" rx="130.11" ry="21.57"/>
<text xml:space="preserve" text-anchor="middle" x="199" y="-918.08" font-family="Helvetica,sans-Serif" font-size="10.00">wg_packet_receive</text>
<text xml:space="preserve" text-anchor="middle" x="199" y="-906.83" font-family="Helvetica,sans-Serif" font-size="10.00">receive.c:542 (MESSAGE_DATA :574)</text>
</g>
<!-- ENCAP&#45;&gt;RECV -->
<g id="edge4" class="edge">
<title>ENCAP&#45;&gt;RECV</title>
<path fill="none" stroke="black" d="M199,-999.19C199,-984.87 199,-965.54 199,-949.27"/>
<polygon fill="black" stroke="black" points="202.5,-949.58 199,-939.58 195.5,-949.58 202.5,-949.58"/>
</g>
<!-- CONS -->
<g id="node6" class="node">
<title>CONS</title>
<ellipse fill="white" stroke="black" cx="199" cy="-832.2" rx="93.51" ry="21.57"/>
<text xml:space="preserve" text-anchor="middle" x="199" y="-833.95" font-family="Helvetica,sans-Serif" font-size="10.00">wg_packet_consume_data</text>
<text xml:space="preserve" text-anchor="middle" x="199" y="-822.7" font-family="Helvetica,sans-Serif" font-size="10.00">receive.c:509</text>
</g>
<!-- RECV&#45;&gt;CONS -->
<g id="edge5" class="edge">
<title>RECV&#45;&gt;CONS</title>
<path fill="none" stroke="black" d="M199,-894.6C199,-885.82 199,-875.38 199,-865.61"/>
<polygon fill="black" stroke="black" points="202.5,-865.72 199,-855.72 195.5,-865.72 202.5,-865.72"/>
</g>
<!-- ENQ2 -->
<g id="node7" class="node">
<title>ENQ2</title>
<ellipse fill="white" stroke="black" cx="199" cy="-739.31" rx="106.24" ry="21.57"/>
<text xml:space="preserve" text-anchor="middle" x="199" y="-741.06" font-family="Helvetica,sans-Serif" font-size="10.00">enqueue_per_device_and_peer</text>
<text xml:space="preserve" text-anchor="middle" x="199" y="-729.81" font-family="Helvetica,sans-Serif" font-size="10.00">queueing.h:152 (2 phases)</text>
</g>
<!-- CONS&#45;&gt;ENQ2 -->
<g id="edge6" class="edge">
<title>CONS&#45;&gt;ENQ2</title>
<path fill="none" stroke="black" d="M199,-810.57C199,-799.38 199,-785.29 199,-772.67"/>
<polygon fill="black" stroke="black" points="202.5,-772.68 199,-762.68 195.5,-772.68 202.5,-772.68"/>
</g>
<!-- RXQ -->
<g id="node8" class="node">
<title>RXQ</title>
<path fill="#fde68a" stroke="black" d="M527,-624.7C527,-626.8 493.83,-628.51 453,-628.51 412.17,-628.51 379,-626.8 379,-624.7 379,-624.7 379,-590.39 379,-590.39 379,-588.28 412.17,-586.57 453,-586.57 493.83,-586.57 527,-588.28 527,-590.39 527,-590.39 527,-624.7 527,-624.7"/>
<path fill="none" stroke="black" d="M527,-624.7C527,-622.6 493.83,-620.89 453,-620.89 412.17,-620.89 379,-622.6 379,-624.7"/>
<text xml:space="preserve" text-anchor="middle" x="453" y="-609.29" font-family="Helvetica,sans-Serif" font-size="10.00">peer&#45;&gt;rx_queue</text>
<text xml:space="preserve" text-anchor="middle" x="453" y="-598.04" font-family="Helvetica,sans-Serif" font-size="10.00">MPSC ORDONNÉE (par pair)</text>
</g>
<!-- ENQ2&#45;&gt;RXQ -->
<g id="edge7" class="edge">
<title>ENQ2&#45;&gt;RXQ</title>
<path fill="none" stroke="black" stroke-dasharray="5,2" d="M253.1,-720.43C286.44,-708.38 329.47,-690.93 365,-670.25 382.76,-659.91 401.53,-647.04 417.15,-635.74"/>
<polygon fill="black" stroke="black" points="419.21,-638.57 425.21,-629.84 415.07,-632.92 419.21,-638.57"/>
<text xml:space="preserve" text-anchor="middle" x="404.98" y="-689.2" font-family="Helvetica,sans-Serif" font-size="9.00">Phase1: enqueue (ORDRE)</text>
<text xml:space="preserve" text-anchor="middle" x="404.98" y="-679.45" font-family="Helvetica,sans-Serif" font-size="9.00">UNCRYPTED</text>
</g>
<!-- RING -->
<g id="node9" class="node">
<title>RING</title>
<path fill="#fde68a" stroke="black" d="M350.25,-624.7C350.25,-626.8 328.18,-628.51 301,-628.51 273.82,-628.51 251.75,-626.8 251.75,-624.7 251.75,-624.7 251.75,-590.39 251.75,-590.39 251.75,-588.28 273.82,-586.57 301,-586.57 328.18,-586.57 350.25,-588.28 350.25,-590.39 350.25,-590.39 350.25,-624.7 350.25,-624.7"/>
<path fill="none" stroke="black" d="M350.25,-624.7C350.25,-622.6 328.18,-620.89 301,-620.89 273.82,-620.89 251.75,-622.6 251.75,-624.7"/>
<text xml:space="preserve" text-anchor="middle" x="301" y="-609.29" font-family="Helvetica,sans-Serif" font-size="10.00">decrypt_queue.ring</text>
<text xml:space="preserve" text-anchor="middle" x="301" y="-598.04" font-family="Helvetica,sans-Serif" font-size="10.00">ptr_ring global</text>
</g>
<!-- ENQ2&#45;&gt;RING -->
<g id="edge8" class="edge">
<title>ENQ2&#45;&gt;RING</title>
<path fill="none" stroke="black" stroke-dasharray="5,2" d="M192.21,-717.48C189.47,-704.78 188.72,-688.99 197.5,-678.25 208.84,-664.38 221.14,-678.57 237,-670.25 252.39,-662.16 266.63,-649.25 277.75,-637.31"/>
<polygon fill="black" stroke="black" points="280.22,-639.81 284.26,-630.01 275,-635.15 280.22,-639.81"/>
<text xml:space="preserve" text-anchor="middle" x="250.75" y="-684.32" font-family="Helvetica,sans-Serif" font-size="9.00">Phase2: ptr_ring_produce</text>
</g>
<!-- WQD -->
<g id="node10" class="node">
<title>WQD</title>
<path fill="#fde68a" stroke="black" d="M222.25,-631.03C222.25,-633.91 197.49,-636.25 167,-636.25 136.51,-636.25 111.75,-633.91 111.75,-631.03 111.75,-631.03 111.75,-584.06 111.75,-584.06 111.75,-581.18 136.51,-578.84 167,-578.84 197.49,-578.84 222.25,-581.18 222.25,-584.06 222.25,-584.06 222.25,-631.03 222.25,-631.03"/>
<path fill="none" stroke="black" d="M222.25,-631.03C222.25,-628.15 197.49,-625.81 167,-625.81 136.51,-625.81 111.75,-628.15 111.75,-631.03"/>
<text xml:space="preserve" text-anchor="middle" x="167" y="-614.92" font-family="Helvetica,sans-Serif" font-size="10.00">packet_crypt_wq</text>
<text xml:space="preserve" text-anchor="middle" x="167" y="-603.67" font-family="Helvetica,sans-Serif" font-size="10.00">workqueue PAR&#45;CPU</text>
<text xml:space="preserve" text-anchor="middle" x="167" y="-592.42" font-family="Helvetica,sans-Serif" font-size="10.00">device.c:346</text>
</g>
<!-- ENQ2&#45;&gt;WQD -->
<g id="edge9" class="edge">
<title>ENQ2&#45;&gt;WQD</title>
<path fill="none" stroke="black" stroke-width="2" d="M113.91,-726C98.77,-719.9 84.8,-710.93 75.25,-697.75 59.94,-676.61 78,-656.09 102.04,-640.06"/>
<polygon fill="black" stroke="black" stroke-width="2" points="102.3,-644.03 108.92,-635.76 98.58,-638.1 102.3,-644.03"/>
<text xml:space="preserve" text-anchor="middle" x="119.12" y="-689.2" font-family="Helvetica,sans-Serif" font-size="9.00">queue_work_on(cpu)</text>
<text xml:space="preserve" text-anchor="middle" x="119.12" y="-679.45" font-family="Helvetica,sans-Serif" font-size="9.00">tourniquet :168&#45;171</text>
</g>
<!-- WORK -->
<g id="node11" class="node">
<title>WORK</title>
<ellipse fill="white" stroke="black" cx="647" cy="-916.33" rx="95.64" ry="21.57"/>
<text xml:space="preserve" text-anchor="middle" x="647" y="-918.08" font-family="Helvetica,sans-Serif" font-size="10.00">wg_packet_decrypt_worker</text>
<text xml:space="preserve" text-anchor="middle" x="647" y="-906.83" font-family="Helvetica,sans-Serif" font-size="10.00">receive.c:493</text>
</g>
<!-- WQD&#45;&gt;WORK -->
<g id="edge10" class="edge">
<title>WQD&#45;&gt;WORK</title>
<path fill="none" stroke="black" stroke-width="2" d="M190.3,-636.51C202.71,-649.27 219.09,-663.1 237,-670.25 259.51,-679.23 435.66,-663.64 455,-678.25 496.91,-709.89 461.65,-747.42 491.5,-790.63 520.62,-832.79 568.08,-867.9 602.92,-890.01"/>
<polygon fill="black" stroke="black" stroke-width="2" points="599.48,-891.99 609.82,-894.3 603.17,-886.04 599.48,-891.99"/>
<text xml:space="preserve" text-anchor="middle" x="538.75" y="-782.08" font-family="Helvetica,sans-Serif" font-size="9.00">réveille worker du CPU</text>
</g>
<!-- WORK&#45;&gt;RING -->
<g id="edge11" class="edge">
<title>WORK&#45;&gt;RING</title>
<path fill="none" stroke="black" stroke-dasharray="5,2" d="M641.2,-894.48C626.44,-845.93 582.34,-725.81 496,-678.25 470.45,-664.17 391.7,-681.98 365,-670.25 348.74,-663.1 334.17,-649.91 323.05,-637.56"/>
<polygon fill="black" stroke="black" points="325.72,-635.3 316.57,-629.96 320.4,-639.84 325.72,-635.3"/>
<text xml:space="preserve" text-anchor="middle" x="645.03" y="-782.08" font-family="Helvetica,sans-Serif" font-size="9.00">ptr_ring_consume :499</text>
</g>
<!-- DEC -->
<g id="node12" class="node">
<title>DEC</title>
<ellipse fill="white" stroke="black" cx="728" cy="-832.2" rx="80.79" ry="21.57"/>
<text xml:space="preserve" text-anchor="middle" x="728" y="-833.95" font-family="Helvetica,sans-Serif" font-size="10.00">decrypt_packet :501</text>
<text xml:space="preserve" text-anchor="middle" x="728" y="-822.7" font-family="Helvetica,sans-Serif" font-size="10.00">&#45;&gt; CRYPTED / DEAD</text>
</g>
<!-- WORK&#45;&gt;DEC -->
<g id="edge12" class="edge">
<title>WORK&#45;&gt;DEC</title>
<path fill="none" stroke="black" d="M667.02,-895.03C676.95,-884.96 689.11,-872.63 699.95,-861.64"/>
<polygon fill="black" stroke="black" points="702.33,-864.21 706.86,-854.63 697.35,-859.29 702.33,-864.21"/>
</g>
<!-- ENQRX -->
<g id="node13" class="node">
<title>ENQRX</title>
<ellipse fill="white" stroke="black" cx="728" cy="-739.31" rx="77.07" ry="21.57"/>
<text xml:space="preserve" text-anchor="middle" x="728" y="-741.06" font-family="Helvetica,sans-Serif" font-size="10.00">enqueue_per_peer_rx</text>
<text xml:space="preserve" text-anchor="middle" x="728" y="-729.81" font-family="Helvetica,sans-Serif" font-size="10.00">queueing.h:188</text>
</g>
<!-- DEC&#45;&gt;ENQRX -->
<g id="edge13" class="edge">
<title>DEC&#45;&gt;ENQRX</title>
<path fill="none" stroke="black" d="M728,-810.57C728,-799.38 728,-785.29 728,-772.67"/>
<polygon fill="black" stroke="black" points="731.5,-772.68 728,-762.68 724.5,-772.68 731.5,-772.68"/>
</g>
<!-- ENQRX&#45;&gt;RXQ -->
<g id="edge15" class="edge">
<title>ENQRX&#45;&gt;RXQ</title>
<path fill="none" stroke="black" stroke-dasharray="5,2" d="M688.5,-720.41C674.78,-713.77 659.47,-705.86 646,-697.75 633.32,-690.11 632.85,-683.47 619,-678.25 584.33,-665.16 570.58,-683.57 536,-670.25 516.11,-662.59 496.82,-648.76 481.85,-636.14"/>
<polygon fill="black" stroke="black" points="484.54,-633.84 474.7,-629.9 479.93,-639.11 484.54,-633.84"/>
<text xml:space="preserve" text-anchor="middle" x="700" y="-684.32" font-family="Helvetica,sans-Serif" font-size="9.00">écrit état CRYPTED/DEAD</text>
</g>
<!-- SCHED -->
<g id="node14" class="node">
<title>SCHED</title>
<path fill="#fecaca" stroke="#b91c1c" stroke-width="3" d="M766.5,-625.54C766.5,-625.54 627.5,-625.54 627.5,-625.54 621.5,-625.54 615.5,-619.54 615.5,-613.54 615.5,-613.54 615.5,-601.54 615.5,-601.54 615.5,-595.54 621.5,-589.54 627.5,-589.54 627.5,-589.54 766.5,-589.54 766.5,-589.54 772.5,-589.54 778.5,-595.54 778.5,-601.54 778.5,-601.54 778.5,-613.54 778.5,-613.54 778.5,-619.54 772.5,-625.54 766.5,-625.54"/>
<text xml:space="preserve" text-anchor="middle" x="697" y="-609.67" font-family="Helvetica,sans-Serif" font-size="10.00">★ napi_schedule(&amp;peer&#45;&gt;napi)</text>
<text xml:space="preserve" text-anchor="middle" x="697" y="-597.67" font-family="Helvetica,sans-Serif" font-size="10.00">queueing.h:196 — SITE DU BUG</text>
</g>
<!-- ENQRX&#45;&gt;SCHED -->
<g id="edge14" class="edge">
<title>ENQRX&#45;&gt;SCHED</title>
<path fill="none" stroke="black" d="M749.32,-718.11C758.66,-706.75 766.4,-692.11 761,-678.25 754.51,-661.58 741.96,-646.48 729.69,-634.63"/>
<polygon fill="black" stroke="black" points="732.17,-632.16 722.43,-627.99 727.44,-637.32 732.17,-632.16"/>
</g>
<!-- SOFT -->
<g id="node15" class="node">
<title>SOFT</title>
<ellipse fill="white" stroke="black" cx="667" cy="-495.77" rx="117.38" ry="21.57"/>
<text xml:space="preserve" text-anchor="middle" x="667" y="-497.52" font-family="Helvetica,sans-Serif" font-size="10.00">____napi_schedule dev.c:4957</text>
<text xml:space="preserve" text-anchor="middle" x="667" y="-486.27" font-family="Helvetica,sans-Serif" font-size="10.00">poll_list :4984 + raise softirq :4990</text>
</g>
<!-- SCHED&#45;&gt;SOFT -->
<g id="edge16" class="edge">
<title>SCHED&#45;&gt;SOFT</title>
<path fill="none" stroke="black" d="M692.05,-588.42C687.62,-572.2 681.02,-548.07 675.71,-528.64"/>
<polygon fill="black" stroke="black" points="679.09,-527.73 673.08,-519.01 672.34,-529.58 679.09,-527.73"/>
</g>
<!-- NRX -->
<g id="node16" class="node">
<title>NRX</title>
<ellipse fill="white" stroke="black" cx="636" cy="-402.89" rx="87.68" ry="21.57"/>
<text xml:space="preserve" text-anchor="middle" x="636" y="-404.64" font-family="Helvetica,sans-Serif" font-size="10.00">net_rx_action dev.c:7914</text>
<text xml:space="preserve" text-anchor="middle" x="636" y="-393.39" font-family="Helvetica,sans-Serif" font-size="10.00">&#45;&gt; napi_poll &#45;&gt; poll()</text>
</g>
<!-- SOFT&#45;&gt;NRX -->
<g id="edge17" class="edge">
<title>SOFT&#45;&gt;NRX</title>
<path fill="none" stroke="black" stroke-width="2" d="M659.97,-474.15C656.07,-462.73 651.14,-448.29 646.77,-435.47"/>
<polygon fill="black" stroke="black" stroke-width="2" points="650.63,-435.95 644.09,-427.61 644.01,-438.21 650.63,-435.95"/>
<text xml:space="preserve" text-anchor="middle" x="695.18" y="-445.66" font-family="Helvetica,sans-Serif" font-size="9.00">raise NET_RX softirq</text>
</g>
<!-- RXPOLL -->
<g id="node17" class="node">
<title>RXPOLL</title>
<ellipse fill="white" stroke="black" cx="508" cy="-318.76" rx="121.62" ry="21.57"/>
<text xml:space="preserve" text-anchor="middle" x="508" y="-320.51" font-family="Helvetica,sans-Serif" font-size="10.00">wg_packet_rx_poll receive.c:438</text>
<text xml:space="preserve" text-anchor="middle" x="508" y="-309.26" font-family="Helvetica,sans-Serif" font-size="10.00">stop au 1er UNCRYPTED :451&#45;453</text>
</g>
<!-- NRX&#45;&gt;RXPOLL -->
<g id="edge18" class="edge">
<title>NRX&#45;&gt;RXPOLL</title>
<path fill="none" stroke="black" d="M605.34,-382.22C588.41,-371.36 567.17,-357.72 548.85,-345.97"/>
<polygon fill="black" stroke="black" points="550.88,-343.11 540.57,-340.66 547.1,-349 550.88,-343.11"/>
</g>
<!-- RXPOLL&#45;&gt;RXQ -->
<g id="edge19" class="edge">
<title>RXPOLL&#45;&gt;RXQ</title>
<path fill="none" stroke="black" stroke-dasharray="5,2" d="M503.99,-340.67C494.44,-390.47 470.31,-516.28 459.01,-575.2"/>
<polygon fill="black" stroke="black" points="455.6,-574.41 457.15,-584.89 462.47,-575.73 455.6,-574.41"/>
<text xml:space="preserve" text-anchor="middle" x="539.17" y="-445.66" font-family="Helvetica,sans-Serif" font-size="9.00">peek tête (curseur tail) :451</text>
</g>
<!-- RXPOLL&#45;&gt;RXPOLL -->
<g id="edge21" class="edge">
<title>RXPOLL&#45;&gt;RXPOLL</title>
<path fill="none" stroke="#b91c1c" stroke-dasharray="5,2" d="M622.93,-326.21C643.91,-325.27 658.62,-322.78 658.62,-318.76 658.62,-315.49 648.91,-313.23 634.01,-312"/>
<polygon fill="#b91c1c" stroke="#b91c1c" points="634.64,-308.53 624.44,-311.4 634.2,-315.51 634.64,-308.53"/>
<text xml:space="preserve" text-anchor="middle" x="744.12" y="-316.21" font-family="Helvetica,sans-Serif" font-size="9.00">tête UNCRYPTED → work_done=0 ⚡ EoI</text>
</g>
<!-- DONE -->
<g id="node18" class="node">
<title>DONE</title>
<ellipse fill="white" stroke="black" cx="527" cy="-225.87" rx="118.44" ry="21.57"/>
<text xml:space="preserve" text-anchor="middle" x="527" y="-227.62" font-family="Helvetica,sans-Serif" font-size="10.00">consume_data_done receive.c:335</text>
<text xml:space="preserve" text-anchor="middle" x="527" y="-216.37" font-family="Helvetica,sans-Serif" font-size="10.00">skb&#45;&gt;dev = wg0 :375</text>
</g>
<!-- RXPOLL&#45;&gt;DONE -->
<g id="edge20" class="edge">
<title>RXPOLL&#45;&gt;DONE</title>
<path fill="none" stroke="black" d="M512.31,-297.13C514.68,-285.83 517.66,-271.56 520.32,-258.84"/>
<polygon fill="black" stroke="black" points="523.71,-259.72 522.33,-249.21 516.86,-258.28 523.71,-259.72"/>
<text xml:space="preserve" text-anchor="middle" x="541.32" y="-268.64" font-family="Helvetica,sans-Serif" font-size="9.00">paquet prêt</text>
</g>
<!-- GRO2 -->
<g id="node19" class="node">
<title>GRO2</title>
<path fill="#bbf7d0" stroke="black" d="M680.28,-142.12C680.28,-142.12 626.75,-159.58 626.75,-159.58 621.05,-161.45 609.34,-163.31 603.34,-163.31 603.34,-163.31 474.66,-163.31 474.66,-163.31 468.66,-163.31 456.95,-161.45 451.25,-159.58 451.25,-159.58 397.72,-142.12 397.72,-142.12 392.02,-140.26 392.02,-136.54 397.72,-134.68 397.72,-134.68 451.25,-117.22 451.25,-117.22 456.95,-115.36 468.66,-113.5 474.66,-113.5 474.66,-113.5 603.34,-113.5 603.34,-113.5 609.34,-113.5 621.05,-115.36 626.75,-117.22 626.75,-117.22 680.28,-134.68 680.28,-134.68 685.98,-136.54 685.98,-140.26 680.28,-142.12"/>
<text xml:space="preserve" text-anchor="middle" x="539" y="-140.15" font-family="Helvetica,sans-Serif" font-size="10.00">GRO #2 napi_gro_receive(&amp;peer&#45;&gt;napi)</text>
<text xml:space="preserve" text-anchor="middle" x="539" y="-128.9" font-family="Helvetica,sans-Serif" font-size="10.00">receive.c:411</text>
</g>
<!-- DONE&#45;&gt;GRO2 -->
<g id="edge22" class="edge">
<title>DONE&#45;&gt;GRO2</title>
<path fill="none" stroke="black" d="M529.9,-204.18C531.14,-195.38 532.62,-184.85 534.02,-174.87"/>
<polygon fill="black" stroke="black" points="537.48,-175.43 535.4,-165.04 530.54,-174.45 537.48,-175.43"/>
</g>
<!-- APP -->
<g id="node20" class="node">
<title>APP</title>
<ellipse fill="#dddddd" stroke="black" cx="539" cy="-34" rx="75.15" ry="18"/>
<text xml:space="preserve" text-anchor="middle" x="539" y="-30.12" font-family="Helvetica,sans-Serif" font-size="10.00">pile IP hôte &#45;&gt; application</text>
</g>
<!-- GRO2&#45;&gt;APP -->
<g id="edge23" class="edge">
<title>GRO2&#45;&gt;APP</title>
<path fill="none" stroke="black" d="M539,-113.14C539,-98.24 539,-79.1 539,-63.49"/>
<polygon fill="black" stroke="black" points="542.5,-63.88 539,-53.88 535.5,-63.88 542.5,-63.88"/>
</g>
</g>
</svg>
