<?xml version="1.0" encoding="UTF-8" standalone="no"?>
<!DOCTYPE svg PUBLIC "-//W3C//DTD SVG 1.1//EN"
 "http://www.w3.org/Graphics/SVG/1.1/DTD/svg11.dtd">
<!-- Generated by graphviz version 15.0.0 (20260523.1842)
 -->
<!-- Title: NAPISLIDE Pages: 1 -->
<svg width="845pt" height="481pt"
 viewBox="0.00 0.00 845.00 481.00" xmlns="http://www.w3.org/2000/svg" xmlns:xlink="http://www.w3.org/1999/xlink">
<g id="graph0" class="graph" transform="scale(1 1) rotate(0) translate(4 476.58)">
<title>NAPISLIDE</title>
<text xml:space="preserve" text-anchor="middle" x="418.43" y="-451.48" font-family="Helvetica,sans-Serif" font-size="18.00">NAPI — sonner UNE fois, puis relever la boîte par lots</text>
<!-- PB -->
<g id="node1" class="node">
<title>PB</title>
<polygon fill="#fee2e2" stroke="black" points="698.31,-445.83 132.56,-445.83 132.56,-409.83 704.31,-409.83 704.31,-439.83 698.31,-445.83"/>
<polyline fill="none" stroke="black" points="698.31,-445.83 698.31,-439.83"/>
<polyline fill="none" stroke="black" points="704.31,-439.83 698.31,-439.83"/>
<text xml:space="preserve" text-anchor="middle" x="418.43" y="-422.96" font-family="Helvetica,sans-Serif" font-size="15.00">SANS NAPI : sonner à CHAQUE paquet → « interrupt storm » → le CPU s&#39;effondre</text>
</g>
<!-- S1 -->
<g id="node2" class="node">
<title>S1</title>
<ellipse fill="#bfdbfe" stroke="black" cx="418.43" cy="-359.83" rx="254.81" ry="18"/>
<text xml:space="preserve" text-anchor="middle" x="418.43" y="-354.21" font-family="Helvetica,sans-Serif" font-size="15.00">① la sonnette retentit UNE fois &#160;(puis on la COUPE)</text>
</g>
<!-- PB&#45;&gt;S1 -->
<g id="edge1" class="edge">
<title>PB&#45;&gt;S1</title>
<path fill="none" stroke="black" stroke-width="1.6" d="M418.43,-409.49C418.43,-403.7 418.43,-397.07 418.43,-390.61"/>
<polygon fill="black" stroke="black" stroke-width="1.6" points="421.93,-390.71 418.43,-380.71 414.93,-390.71 421.93,-390.71"/>
</g>
<!-- S2 -->
<g id="node3" class="node">
<title>S2</title>
<ellipse fill="#dbeafe" stroke="black" cx="418.43" cy="-291.83" rx="418.43" ry="18"/>
<text xml:space="preserve" text-anchor="middle" x="418.43" y="-286.21" font-family="Helvetica,sans-Serif" font-size="15.00">② on coche « à faire » + on lève un drapeau (RIEN ne tourne encore) = napi_schedule</text>
</g>
<!-- S1&#45;&gt;S2 -->
<g id="edge2" class="edge">
<title>S1&#45;&gt;S2</title>
<path fill="none" stroke="black" stroke-width="1.6" d="M418.43,-341.49C418.43,-335.7 418.43,-329.07 418.43,-322.61"/>
<polygon fill="black" stroke="black" stroke-width="1.6" points="421.93,-322.71 418.43,-312.71 414.93,-322.71 421.93,-322.71"/>
</g>
<!-- S3 -->
<g id="node4" class="node">
<title>S3</title>
<ellipse fill="#dbeafe" stroke="black" cx="418.43" cy="-223.83" rx="294.27" ry="18"/>
<text xml:space="preserve" text-anchor="middle" x="418.43" y="-218.21" font-family="Helvetica,sans-Serif" font-size="15.00">③ plus tard : on relève la boîte = net_rx_action appelle poll()</text>
</g>
<!-- S2&#45;&gt;S3 -->
<g id="edge3" class="edge">
<title>S2&#45;&gt;S3</title>
<path fill="none" stroke="black" stroke-width="1.6" d="M418.43,-273.49C418.43,-267.7 418.43,-261.07 418.43,-254.61"/>
<polygon fill="black" stroke="black" stroke-width="1.6" points="421.93,-254.71 418.43,-244.71 414.93,-254.71 421.93,-254.71"/>
</g>
<!-- S4 -->
<g id="node5" class="node">
<title>S4</title>
<ellipse fill="#dbeafe" stroke="black" cx="418.43" cy="-155.83" rx="264.28" ry="18"/>
<text xml:space="preserve" text-anchor="middle" x="418.43" y="-150.21" font-family="Helvetica,sans-Serif" font-size="15.00">④ poll() RAMASSE jusqu&#39;à 64 paquets (le « budget »)</text>
</g>
<!-- S3&#45;&gt;S4 -->
<g id="edge4" class="edge">
<title>S3&#45;&gt;S4</title>
<path fill="none" stroke="black" stroke-width="1.6" d="M418.43,-205.49C418.43,-199.7 418.43,-193.07 418.43,-186.61"/>
<polygon fill="black" stroke="black" stroke-width="1.6" points="421.93,-186.71 418.43,-176.71 414.93,-186.71 421.93,-186.71"/>
</g>
<!-- S5 -->
<g id="node6" class="node">
<title>S5</title>
<ellipse fill="#dbeafe" stroke="black" cx="418.43" cy="-86.92" rx="366.63" ry="18.92"/>
<text xml:space="preserve" text-anchor="middle" x="418.43" y="-82.04" font-family="Helvetica,sans-Serif" font-size="15.00">⑤ boîte vide → napi_complete_done : vide le GRO, RÉACTIVE la sonnette</text>
</g>
<!-- S4&#45;&gt;S5 -->
<g id="edge5" class="edge">
<title>S4&#45;&gt;S5</title>
<path fill="none" stroke="black" stroke-width="1.6" d="M418.43,-137.6C418.43,-131.75 418.43,-125.02 418.43,-118.45"/>
<polygon fill="black" stroke="black" stroke-width="1.6" points="421.93,-118.68 418.43,-108.68 414.93,-118.68 421.93,-118.68"/>
</g>
<!-- KEY -->
<g id="node7" class="node">
<title>KEY</title>
<polygon fill="#fef9c3" stroke="black" points="669.06,-36 161.81,-36 161.81,0 675.06,0 675.06,-30 669.06,-36"/>
<polyline fill="none" stroke="black" points="669.06,-36 669.06,-30"/>
<polyline fill="none" stroke="black" points="675.06,-30 669.06,-30"/>
<text xml:space="preserve" text-anchor="middle" x="418.43" y="-11.62" font-family="Helvetica,sans-Serif" font-size="15.00">NAPI = une FICHE + une FONCTION (PAS un thread) — tourne en softirq</text>
</g>
<!-- S5&#45;&gt;KEY -->
<g id="edge6" class="edge">
<title>S5&#45;&gt;KEY</title>
<path fill="none" stroke="black" stroke-width="1.6" d="M418.43,-67.63C418.43,-61.76 418.43,-55.11 418.43,-48.65"/>
<polygon fill="black" stroke="black" stroke-width="1.6" points="421.93,-48.76 418.43,-38.76 414.93,-48.76 421.93,-48.76"/>
</g>
</g>
</svg>
