<?xml version="1.0" encoding="UTF-8" standalone="no"?>
<!DOCTYPE svg PUBLIC "-//W3C//DTD SVG 1.1//EN"
 "http://www.w3.org/Graphics/SVG/1.1/DTD/svg11.dtd">
<!-- Generated by graphviz version 15.0.0 (20260523.1842)
 -->
<!-- Title: TEASER Pages: 1 -->
<svg width="1152pt" height="130pt"
 viewBox="0.00 0.00 1152.00 130.00" xmlns="http://www.w3.org/2000/svg" xmlns:xlink="http://www.w3.org/1999/xlink">
<g id="graph0" class="graph" transform="scale(1 1) rotate(0) translate(4 126.4)">
<title>TEASER</title>
<!-- A -->
<g id="node1" class="node">
<title>A</title>
<path fill="#dbeafe" stroke="black" d="M220.75,-122.4C220.75,-122.4 12,-122.4 12,-122.4 6,-122.4 0,-116.4 0,-110.4 0,-110.4 0,-12 0,-12 0,-6 6,0 12,0 12,0 220.75,0 220.75,0 226.75,0 232.75,-6 232.75,-12 232.75,-12 232.75,-110.4 232.75,-110.4 232.75,-116.4 226.75,-122.4 220.75,-122.4"/>
<text xml:space="preserve" text-anchor="middle" x="116.38" y="-74.82" font-family="Helvetica,sans-Serif" font-size="20.00">① &#160;NAPI de la CARTE</text>
<text xml:space="preserve" text-anchor="middle" x="116.38" y="-51.57" font-family="Helvetica,sans-Serif" font-size="20.00">reçoit le paquet chiffré</text>
<text xml:space="preserve" text-anchor="middle" x="116.38" y="-30.57" font-family="Helvetica,sans-Serif" font-size="20.00">+ GRO #1 (conditionnel)</text>
</g>
<!-- B -->
<g id="node2" class="node">
<title>B</title>
<path fill="#fee2e2" stroke="black" d="M664.5,-122.4C664.5,-122.4 425,-122.4 425,-122.4 419,-122.4 413,-116.4 413,-110.4 413,-110.4 413,-12 413,-12 413,-6 419,0 425,0 425,0 664.5,0 664.5,0 670.5,0 676.5,-6 676.5,-12 676.5,-12 676.5,-110.4 676.5,-110.4 676.5,-116.4 670.5,-122.4 664.5,-122.4"/>
<text xml:space="preserve" text-anchor="middle" x="544.75" y="-74.82" font-family="Helvetica,sans-Serif" font-size="20.00">② &#160;WORKQUEUE par&#45;CPU</text>
<text xml:space="preserve" text-anchor="middle" x="544.75" y="-51.57" font-family="Helvetica,sans-Serif" font-size="20.00">déchiffre EN PARALLÈLE</text>
<text xml:space="preserve" text-anchor="middle" x="544.75" y="-30.57" font-family="Helvetica,sans-Serif" font-size="20.00">(fin dans le désordre)</text>
</g>
<!-- A&#45;&gt;B -->
<g id="edge1" class="edge">
<title>A&#45;&gt;B</title>
<path fill="none" stroke="black" stroke-width="2.2" d="M233.04,-61.2C284.3,-61.2 345.15,-61.2 399.36,-61.2"/>
<polygon fill="black" stroke="black" stroke-width="2.2" points="399.29,-64.7 409.29,-61.2 399.29,-57.7 399.29,-64.7"/>
<text xml:space="preserve" text-anchor="middle" x="322.88" y="-63.05" font-family="Helvetica,sans-Serif" font-size="17.00"> &#160;paquet chiffré &#160;</text>
</g>
<!-- C -->
<g id="node3" class="node">
<title>C</title>
<path fill="#dcfce7" stroke="black" d="M1132.25,-122.4C1132.25,-122.4 888.25,-122.4 888.25,-122.4 882.25,-122.4 876.25,-116.4 876.25,-110.4 876.25,-110.4 876.25,-12 876.25,-12 876.25,-6 882.25,0 888.25,0 888.25,0 1132.25,0 1132.25,0 1138.25,0 1144.25,-6 1144.25,-12 1144.25,-12 1144.25,-110.4 1144.25,-110.4 1144.25,-116.4 1138.25,-122.4 1132.25,-122.4"/>
<text xml:space="preserve" text-anchor="middle" x="1010.25" y="-74.82" font-family="Helvetica,sans-Serif" font-size="20.00">③ &#160;NAPI de WIREGUARD</text>
<text xml:space="preserve" text-anchor="middle" x="1010.25" y="-51.57" font-family="Helvetica,sans-Serif" font-size="20.00">remet en ORDRE + GRO #2</text>
<text xml:space="preserve" text-anchor="middle" x="1010.25" y="-30.57" font-family="Helvetica,sans-Serif" font-size="20.00">(interface virtuelle wg0)</text>
</g>
<!-- B&#45;&gt;C -->
<g id="edge2" class="edge">
<title>B&#45;&gt;C</title>
<path fill="none" stroke="black" stroke-width="2.2" d="M676.71,-61.2C734.7,-61.2 803.14,-61.2 862.81,-61.2"/>
<polygon fill="black" stroke="black" stroke-width="2.2" points="862.46,-64.7 872.46,-61.2 862.46,-57.7 862.46,-64.7"/>
<text xml:space="preserve" text-anchor="middle" x="776.38" y="-63.05" font-family="Helvetica,sans-Serif" font-size="17.00"> &#160;paquet déchiffré &#160;</text>
</g>
</g>
</svg>
