<?xml version="1.0" encoding="UTF-8" standalone="no"?>
<!DOCTYPE svg PUBLIC "-//W3C//DTD SVG 1.1//EN"
 "http://www.w3.org/Graphics/SVG/1.1/DTD/svg11.dtd">
<!-- Generated by graphviz version 15.0.0 (20260523.1842)
 -->
<!-- Title: ENGINES Pages: 1 -->
<svg width="885pt" height="311pt"
 viewBox="0.00 0.00 885.00 311.00" xmlns="http://www.w3.org/2000/svg" xmlns:xlink="http://www.w3.org/1999/xlink">
<g id="graph0" class="graph" transform="scale(1 1) rotate(0) translate(4 306.8)">
<title>ENGINES</title>
<!-- NAPI -->
<g id="node1" class="node">
<title>NAPI</title>
<polygon fill="#dbeafe" stroke="#3b82f6" stroke-width="2" points="259.2,-302.8 0,-302.8 0,-122.8 259.2,-122.8 259.2,-302.8"/>
<text xml:space="preserve" text-anchor="start" x="63.98" y="-267" font-family="Helvetica,sans-Serif" font-weight="bold" font-size="14.00">NAPI — the doorbell</text>
<text xml:space="preserve" text-anchor="start" x="72.98" y="-246.05" font-family="Helvetica,sans-Serif" font-size="14.00">Ring ONCE, mute,</text>
<text xml:space="preserve" text-anchor="start" x="86.48" y="-231.05" font-family="Helvetica,sans-Serif" font-size="14.00">collect a batch</text>
<text xml:space="preserve" text-anchor="start" x="42.6" y="-209.05" font-family="Helvetica,sans-Serif" font-size="14.00" fill="#475569">(not one interrupt per packet)</text>
<text xml:space="preserve" text-anchor="start" x="127.73" y="-187.05" font-family="Helvetica,sans-Serif" font-size="14.00"> </text>
<text xml:space="preserve" text-anchor="start" x="39.23" y="-165.05" font-family="Helvetica,sans-Serif" font-size="14.00" fill="#b91c1c">napi_schedule only sets a flag</text>
<text xml:space="preserve" text-anchor="start" x="19.73" y="-150.05" font-family="Helvetica,sans-Serif" font-size="14.00" fill="#b91c1c">+ raises a softirq — poll runs LATER</text>
</g>
<!-- WQ -->
<g id="node2" class="node">
<title>WQ</title>
<polygon fill="#fee2e2" stroke="#ef4444" stroke-width="2" points="568.2,-302.8 309,-302.8 309,-122.8 568.2,-122.8 568.2,-302.8"/>
<text xml:space="preserve" text-anchor="start" x="346.73" y="-271.5" font-family="Helvetica,sans-Serif" font-weight="bold" font-size="14.00">Workqueue — the workshop</text>
<text xml:space="preserve" text-anchor="start" x="337.35" y="-250.55" font-family="Helvetica,sans-Serif" font-size="14.00">Decryption (ChaCha20&#45;Poly1305)</text>
<text xml:space="preserve" text-anchor="start" x="368.1" y="-235.55" font-family="Helvetica,sans-Serif" font-size="14.00">too heavy for the softirq</text>
<text xml:space="preserve" text-anchor="start" x="369.98" y="-210.55" font-family="Helvetica,sans-Serif" font-size="14.00" fill="#475569">→ background threads</text>
<text xml:space="preserve" text-anchor="start" x="436.73" y="-188.55" font-family="Helvetica,sans-Serif" font-size="14.00"> </text>
<text xml:space="preserve" text-anchor="start" x="321.23" y="-163.55" font-family="Helvetica,sans-Serif" font-size="14.00" fill="#b91c1c">ONE worker per core → IN PARALLEL</text>
<text xml:space="preserve" text-anchor="start" x="359.1" y="-145.55" font-family="Helvetica,sans-Serif" font-size="14.00" fill="#b91c1c">→ finish OUT OF ORDER</text>
</g>
<!-- NAPI&#45;&gt;WQ -->
<g id="edge1" class="edge">
<title>NAPI&#45;&gt;WQ</title>
<path fill="none" stroke="#64748b" stroke-width="1.8" d="M259.96,-212.8C271.87,-212.8 283.78,-212.8 295.7,-212.8"/>
<polygon fill="#64748b" stroke="#64748b" stroke-width="1.8" points="295.38,-216.3 305.38,-212.8 295.38,-209.3 295.38,-216.3"/>
</g>
<!-- SEED -->
<g id="node4" class="node">
<title>SEED</title>
<path fill="#fef9c3" stroke="#ca8a04" stroke-width="2" d="M714.6,-64.8C714.6,-64.8 162.6,-64.8 162.6,-64.8 156.6,-64.8 150.6,-58.8 150.6,-52.8 150.6,-52.8 150.6,-12 150.6,-12 150.6,-6 156.6,0 162.6,0 162.6,0 714.6,0 714.6,0 720.6,0 726.6,-6 726.6,-12 726.6,-12 726.6,-52.8 726.6,-52.8 726.6,-58.8 720.6,-64.8 714.6,-64.8"/>
<text xml:space="preserve" text-anchor="start" x="336.6" y="-38.1" font-family="Helvetica,sans-Serif" font-weight="bold" font-size="14.00">The contrast that seeds the bug</text>
<text xml:space="preserve" text-anchor="start" x="182.1" y="-18.15" font-family="Helvetica,sans-Serif" font-size="14.00">ONE shared workshop  ·  but each peer has its OWN ordered queue + its OWN NAPI</text>
</g>
<!-- NAPI&#45;&gt;SEED -->
<!-- GRO -->
<g id="node3" class="node">
<title>GRO</title>
<polygon fill="#dcfce7" stroke="#22c55e" stroke-width="2" points="877.2,-302.8 618,-302.8 618,-122.8 877.2,-122.8 877.2,-302.8"/>
<text xml:space="preserve" text-anchor="start" x="686.48" y="-268.5" font-family="Helvetica,sans-Serif" font-weight="bold" font-size="14.00">GRO — the stapler</text>
<text xml:space="preserve" text-anchor="start" x="657.98" y="-247.55" font-family="Helvetica,sans-Serif" font-size="14.00">Traversing the stack costs the</text>
<text xml:space="preserve" text-anchor="start" x="664.73" y="-232.55" font-family="Helvetica,sans-Serif" font-size="14.00">same fixed price per packet</text>
<text xml:space="preserve" text-anchor="start" x="662.48" y="-207.55" font-family="Helvetica,sans-Serif" font-size="14.00" fill="#475569">→ staple same&#45;flow packets</text>
<text xml:space="preserve" text-anchor="start" x="745.73" y="-185.55" font-family="Helvetica,sans-Serif" font-size="14.00"> </text>
<text xml:space="preserve" text-anchor="start" x="684.98" y="-163.55" font-family="Helvetica,sans-Serif" font-size="14.00" fill="#15803d">One trip up the stack</text>
<text xml:space="preserve" text-anchor="start" x="711.6" y="-148.55" font-family="Helvetica,sans-Serif" font-size="14.00" fill="#15803d">instead of N</text>
</g>
<!-- WQ&#45;&gt;GRO -->
<g id="edge2" class="edge">
<title>WQ&#45;&gt;GRO</title>
<path fill="none" stroke="#64748b" stroke-width="1.8" d="M568.96,-212.8C580.87,-212.8 592.78,-212.8 604.7,-212.8"/>
<polygon fill="#64748b" stroke="#64748b" stroke-width="1.8" points="604.38,-216.3 614.38,-212.8 604.38,-209.3 604.38,-216.3"/>
</g>
<!-- WQ&#45;&gt;SEED -->
<!-- GRO&#45;&gt;SEED -->
</g>
</svg>
