<?xml version="1.0" encoding="UTF-8" standalone="no"?>
<!DOCTYPE svg PUBLIC "-//W3C//DTD SVG 1.1//EN"
 "http://www.w3.org/Graphics/SVG/1.1/DTD/svg11.dtd">
<!-- Generated by graphviz version 15.0.0 (20260523.1842)
 -->
<!-- Title: NAPISLIDE Pages: 1 -->
<svg width="735pt" height="481pt"
 viewBox="0.00 0.00 735.00 481.00" xmlns="http://www.w3.org/2000/svg" xmlns:xlink="http://www.w3.org/1999/xlink">
<g id="graph0" class="graph" transform="scale(1 1) rotate(0) translate(4 476.58)">
<title>NAPISLIDE</title>
<text xml:space="preserve" text-anchor="middle" x="363.45" y="-451.48" font-family="Helvetica,sans-Serif" font-size="18.00">NAPI — ring once, then collect the mailbox in batches</text>
<!-- PB -->
<g id="node1" class="node">
<title>PB</title>
<polygon fill="#fee2e2" stroke="black" points="635.45,-445.83 85.45,-445.83 85.45,-409.83 641.45,-409.83 641.45,-439.83 635.45,-445.83"/>
<polyline fill="none" stroke="black" points="635.45,-445.83 635.45,-439.83"/>
<polyline fill="none" stroke="black" points="641.45,-439.83 635.45,-439.83"/>
<text xml:space="preserve" text-anchor="middle" x="363.45" y="-422.96" font-family="Helvetica,sans-Serif" font-size="15.00">WITHOUT NAPI: ring at EVERY packet → &quot;interrupt storm&quot; → the CPU collapses</text>
</g>
<!-- S1 -->
<g id="node2" class="node">
<title>S1</title>
<ellipse fill="#bfdbfe" stroke="black" cx="363.45" cy="-359.83" rx="215.23" ry="18"/>
<text xml:space="preserve" text-anchor="middle" x="363.45" y="-353.46" font-family="Helvetica,sans-Serif" font-size="15.00">(1) the doorbell rings ONCE &#160;(then we mute it)</text>
</g>
<!-- PB&#45;&gt;S1 -->
<g id="edge1" class="edge">
<title>PB&#45;&gt;S1</title>
<path fill="none" stroke="black" stroke-width="1.6" d="M363.45,-409.49C363.45,-403.7 363.45,-397.07 363.45,-390.61"/>
<polygon fill="black" stroke="black" stroke-width="1.6" points="366.95,-390.71 363.45,-380.71 359.95,-390.71 366.95,-390.71"/>
</g>
<!-- S2 -->
<g id="node3" class="node">
<title>S2</title>
<ellipse fill="#dbeafe" stroke="black" cx="363.45" cy="-291.83" rx="304.55" ry="18"/>
<text xml:space="preserve" text-anchor="middle" x="363.45" y="-285.46" font-family="Helvetica,sans-Serif" font-size="15.00">(2) tick &quot;to do&quot; + raise a flag (NOTHING runs yet) = napi_schedule</text>
</g>
<!-- S1&#45;&gt;S2 -->
<g id="edge2" class="edge">
<title>S1&#45;&gt;S2</title>
<path fill="none" stroke="black" stroke-width="1.6" d="M363.45,-341.49C363.45,-335.7 363.45,-329.07 363.45,-322.61"/>
<polygon fill="black" stroke="black" stroke-width="1.6" points="366.95,-322.71 363.45,-312.71 359.95,-322.71 366.95,-322.71"/>
</g>
<!-- S3 -->
<g id="node4" class="node">
<title>S3</title>
<ellipse fill="#dbeafe" stroke="black" cx="363.45" cy="-223.83" rx="268.13" ry="18"/>
<text xml:space="preserve" text-anchor="middle" x="363.45" y="-217.46" font-family="Helvetica,sans-Serif" font-size="15.00">(3) later: we collect the mailbox = net_rx_action calls poll()</text>
</g>
<!-- S2&#45;&gt;S3 -->
<g id="edge3" class="edge">
<title>S2&#45;&gt;S3</title>
<path fill="none" stroke="black" stroke-width="1.6" d="M363.45,-273.49C363.45,-267.7 363.45,-261.07 363.45,-254.61"/>
<polygon fill="black" stroke="black" stroke-width="1.6" points="366.95,-254.71 363.45,-244.71 359.95,-254.71 366.95,-254.71"/>
</g>
<!-- S4 -->
<g id="node5" class="node">
<title>S4</title>
<ellipse fill="#dbeafe" stroke="black" cx="363.45" cy="-155.83" rx="244.18" ry="18"/>
<text xml:space="preserve" text-anchor="middle" x="363.45" y="-149.46" font-family="Helvetica,sans-Serif" font-size="15.00">(4) poll() COLLECTS up to 64 packets (the &quot;budget&quot;)</text>
</g>
<!-- S3&#45;&gt;S4 -->
<g id="edge4" class="edge">
<title>S3&#45;&gt;S4</title>
<path fill="none" stroke="black" stroke-width="1.6" d="M363.45,-205.49C363.45,-199.7 363.45,-193.07 363.45,-186.61"/>
<polygon fill="black" stroke="black" stroke-width="1.6" points="366.95,-186.71 363.45,-176.71 359.95,-186.71 366.95,-186.71"/>
</g>
<!-- S5 -->
<g id="node6" class="node">
<title>S5</title>
<ellipse fill="#dbeafe" stroke="black" cx="363.45" cy="-86.92" rx="363.45" ry="18.92"/>
<text xml:space="preserve" text-anchor="middle" x="363.45" y="-82.04" font-family="Helvetica,sans-Serif" font-size="15.00">(5) mailbox empty → napi_complete_done: flush GRO, re&#45;arm the doorbell</text>
</g>
<!-- S4&#45;&gt;S5 -->
<g id="edge5" class="edge">
<title>S4&#45;&gt;S5</title>
<path fill="none" stroke="black" stroke-width="1.6" d="M363.45,-137.6C363.45,-131.75 363.45,-125.02 363.45,-118.45"/>
<polygon fill="black" stroke="black" stroke-width="1.6" points="366.95,-118.68 363.45,-108.68 359.95,-118.68 366.95,-118.68"/>
</g>
<!-- KEY -->
<g id="node7" class="node">
<title>KEY</title>
<polygon fill="#fef9c3" stroke="black" points="629.08,-36 91.83,-36 91.83,0 635.08,0 635.08,-30 629.08,-36"/>
<polyline fill="none" stroke="black" points="629.08,-36 629.08,-30"/>
<polyline fill="none" stroke="black" points="635.08,-30 629.08,-30"/>
<text xml:space="preserve" text-anchor="middle" x="363.45" y="-11.62" font-family="Helvetica,sans-Serif" font-size="15.00">NAPI = a RECORD + a FUNCTION (NOT a running program) &#45; runs in a softirq</text>
</g>
<!-- S5&#45;&gt;KEY -->
<g id="edge6" class="edge">
<title>S5&#45;&gt;KEY</title>
<path fill="none" stroke="black" stroke-width="1.6" d="M363.45,-67.63C363.45,-61.76 363.45,-55.11 363.45,-48.65"/>
<polygon fill="black" stroke="black" stroke-width="1.6" points="366.95,-48.76 363.45,-38.76 359.95,-48.76 366.95,-48.76"/>
</g>
</g>
</svg>
