<?xml version="1.0" encoding="UTF-8" standalone="no"?>
<!DOCTYPE svg PUBLIC "-//W3C//DTD SVG 1.1//EN"
 "http://www.w3.org/Graphics/SVG/1.1/DTD/svg11.dtd">
<!-- Generated by graphviz version 15.0.0 (20260523.1842)
 -->
<!-- Title: GROSLIDE Pages: 1 -->
<svg width="556pt" height="434pt"
 viewBox="0.00 0.00 556.00 434.00" xmlns="http://www.w3.org/2000/svg" xmlns:xlink="http://www.w3.org/1999/xlink">
<g id="graph0" class="graph" transform="scale(1 1) rotate(0) translate(4 430.01)">
<title>GROSLIDE</title>
<!-- IN -->
<g id="node1" class="node">
<title>IN</title>
<ellipse fill="#dbeafe" stroke="black" cx="273.93" cy="-408.01" rx="248.4" ry="18"/>
<text xml:space="preserve" text-anchor="middle" x="273.93" y="-401.06" font-family="Helvetica,sans-Serif" font-size="16.00">4 packets of the SAME flow &#160;(packet 1 &#45; 2 &#45; 3 &#45; 4)</text>
</g>
<!-- GRO -->
<g id="node2" class="node">
<title>GRO</title>
<path fill="#dcfce7" stroke="black" d="M536.21,-323.39C536.21,-323.39 422.56,-351.16 422.56,-351.16 416.73,-352.59 404.9,-354.01 398.9,-354.01 398.9,-354.01 148.97,-354.01 148.97,-354.01 142.97,-354.01 131.14,-352.59 125.31,-351.16 125.31,-351.16 11.66,-323.39 11.66,-323.39 5.83,-321.96 5.83,-319.11 11.66,-317.69 11.66,-317.69 125.31,-289.91 125.31,-289.91 131.14,-288.48 142.97,-287.06 148.97,-287.06 148.97,-287.06 398.9,-287.06 398.9,-287.06 404.9,-287.06 416.73,-288.48 422.56,-289.91 422.56,-289.91 536.21,-317.69 536.21,-317.69 542.04,-319.11 542.04,-321.96 536.21,-323.39"/>
<text xml:space="preserve" text-anchor="middle" x="273.93" y="-321.84" font-family="Helvetica,sans-Serif" font-size="16.00">STAPLE them instead of going up right away</text>
<text xml:space="preserve" text-anchor="middle" x="273.93" y="-305.34" font-family="Helvetica,sans-Serif" font-size="16.00">= napi_gro_receive &#160;&#160;(receive.c:411)</text>
</g>
<!-- IN&#45;&gt;GRO -->
<g id="edge1" class="edge">
<title>IN&#45;&gt;GRO</title>
<path fill="none" stroke="black" stroke-width="1.6" d="M273.93,-389.72C273.93,-382.98 273.93,-374.91 273.93,-366.73"/>
<polygon fill="black" stroke="black" stroke-width="1.6" points="277.43,-366.79 273.93,-356.79 270.43,-366.79 277.43,-366.79"/>
</g>
<!-- BIG -->
<g id="node3" class="node">
<title>BIG</title>
<ellipse fill="#bbf7d0" stroke="black" cx="273.93" cy="-233.06" rx="141.94" ry="18"/>
<text xml:space="preserve" text-anchor="middle" x="273.93" y="-226.11" font-family="Helvetica,sans-Serif" font-size="16.00">ONE big parcel &#160;(1+2+3+4)</text>
</g>
<!-- GRO&#45;&gt;BIG -->
<g id="edge2" class="edge">
<title>GRO&#45;&gt;BIG</title>
<path fill="none" stroke="black" stroke-width="1.6" d="M273.93,-286.73C273.93,-279.11 273.93,-271.03 273.93,-263.56"/>
<polygon fill="black" stroke="black" stroke-width="1.6" points="277.43,-263.78 273.93,-253.78 270.43,-263.78 277.43,-263.78"/>
</g>
<!-- UP -->
<g id="node4" class="node">
<title>UP</title>
<ellipse fill="#dcfce7" stroke="black" cx="273.93" cy="-136.28" rx="227.16" ry="42.78"/>
<text xml:space="preserve" text-anchor="middle" x="273.93" y="-147.33" font-family="Helvetica,sans-Serif" font-size="16.00">napi_complete_done → gro_flush_normal:</text>
<text xml:space="preserve" text-anchor="middle" x="273.93" y="-127.83" font-family="Helvetica,sans-Serif" font-size="16.00">ONE trip up the stack instead of 4</text>
<text xml:space="preserve" text-anchor="middle" x="273.93" y="-111.33" font-family="Helvetica,sans-Serif" font-size="16.00">(the per&#45;packet &quot;toll&quot; is paid once)</text>
</g>
<!-- BIG&#45;&gt;UP -->
<g id="edge3" class="edge">
<title>BIG&#45;&gt;UP</title>
<path fill="none" stroke="black" stroke-width="1.6" d="M273.93,-214.68C273.93,-208 273.93,-199.97 273.93,-191.65"/>
<polygon fill="black" stroke="black" stroke-width="1.6" points="277.43,-191.79 273.93,-181.79 270.43,-191.79 277.43,-191.79"/>
</g>
<!-- FRONTS -->
<g id="node5" class="node">
<title>FRONTS</title>
<polygon fill="#fef9c3" stroke="black" points="436.43,-57.5 105.43,-57.5 105.43,0 442.43,0 442.43,-51.5 436.43,-57.5"/>
<polyline fill="none" stroke="black" points="436.43,-57.5 436.43,-51.5"/>
<polyline fill="none" stroke="black" points="442.43,-51.5 436.43,-51.5"/>
<text xml:space="preserve" text-anchor="middle" x="273.93" y="-38.3" font-family="Helvetica,sans-Serif" font-size="16.00">2 fronts in WireGuard:</text>
<text xml:space="preserve" text-anchor="middle" x="273.93" y="-21.8" font-family="Helvetica,sans-Serif" font-size="16.00">#1 external encrypted (NIC) &#45; CONDITIONAL</text>
<text xml:space="preserve" text-anchor="middle" x="273.93" y="-5.3" font-family="Helvetica,sans-Serif" font-size="16.00">#2 internal decrypted (wg0) &#45; EXPLICIT</text>
</g>
<!-- UP&#45;&gt;FRONTS -->
</g>
</svg>
