<?xml version="1.0" encoding="UTF-8" standalone="no"?>
<!DOCTYPE svg PUBLIC "-//W3C//DTD SVG 1.1//EN"
 "http://www.w3.org/Graphics/SVG/1.1/DTD/svg11.dtd">
<!-- Generated by graphviz version 15.0.0 (20260523.1842)
 -->
<!-- Title: PIPE Pages: 1 -->
<svg width="1349pt" height="99pt"
 viewBox="0.00 0.00 1349.00 99.00" xmlns="http://www.w3.org/2000/svg" xmlns:xlink="http://www.w3.org/1999/xlink">
<g id="graph0" class="graph" transform="scale(1 1) rotate(0) translate(4 95.25)">
<title>PIPE</title>
<!-- A1 -->
<g id="node1" class="node">
<title>A1</title>
<path fill="#dbeafe" stroke="black" d="M166.75,-74C166.75,-74 12,-74 12,-74 6,-74 0,-68 0,-62 0,-62 0,-29.25 0,-29.25 0,-23.25 6,-17.25 12,-17.25 12,-17.25 166.75,-17.25 166.75,-17.25 172.75,-17.25 178.75,-23.25 178.75,-29.25 178.75,-29.25 178.75,-62 178.75,-62 178.75,-68 172.75,-74 166.75,-74"/>
<text xml:space="preserve" text-anchor="middle" x="89.38" y="-55.75" font-family="Helvetica,sans-Serif" font-size="15.00">① &#160;NIC : NAPI du pilote</text>
<text xml:space="preserve" text-anchor="middle" x="89.38" y="-38.5" font-family="Helvetica,sans-Serif" font-size="15.00">+ GRO #1 (conditionnel)</text>
<text xml:space="preserve" text-anchor="middle" x="89.38" y="-22.75" font-family="Helvetica,sans-Serif" font-size="15.00">udp_offload.c:800</text>
</g>
<!-- A2 -->
<g id="node2" class="node">
<title>A2</title>
<path fill="#dbeafe" stroke="black" d="M407.25,-90.5C407.25,-90.5 230.75,-90.5 230.75,-90.5 224.75,-90.5 218.75,-84.5 218.75,-78.5 218.75,-78.5 218.75,-12.75 218.75,-12.75 218.75,-6.75 224.75,-0.75 230.75,-0.75 230.75,-0.75 407.25,-0.75 407.25,-0.75 413.25,-0.75 419.25,-6.75 419.25,-12.75 419.25,-12.75 419.25,-78.5 419.25,-78.5 419.25,-84.5 413.25,-90.5 407.25,-90.5"/>
<text xml:space="preserve" text-anchor="middle" x="319" y="-72.25" font-family="Helvetica,sans-Serif" font-size="15.00">② &#160;WireGuard reçoit →</text>
<text xml:space="preserve" text-anchor="middle" x="319" y="-53.5" font-family="Helvetica,sans-Serif" font-size="15.00">mise en file 2 phases :</text>
<text xml:space="preserve" text-anchor="middle" x="319" y="-37.75" font-family="Helvetica,sans-Serif" font-size="15.00">• file ORDONNÉE (par pair)</text>
<text xml:space="preserve" text-anchor="middle" x="319" y="-22" font-family="Helvetica,sans-Serif" font-size="15.00">• queue_work_on(cpu)</text>
<text xml:space="preserve" text-anchor="middle" x="319" y="-6.25" font-family="Helvetica,sans-Serif" font-size="15.00">queueing.h:152</text>
</g>
<!-- A1&#45;&gt;A2 -->
<g id="edge1" class="edge">
<title>A1&#45;&gt;A2</title>
<path fill="none" stroke="black" stroke-width="1.6" d="M179.03,-45.62C187.87,-45.62 196.92,-45.62 205.96,-45.62"/>
<polygon fill="black" stroke="black" stroke-width="1.6" points="205.83,-49.13 215.83,-45.63 205.83,-42.13 205.83,-49.13"/>
</g>
<!-- B1 -->
<g id="node3" class="node">
<title>B1</title>
<path fill="#fee2e2" stroke="black" d="M653.75,-83.38C653.75,-83.38 471.25,-83.38 471.25,-83.38 465.25,-83.38 459.25,-77.38 459.25,-71.38 459.25,-71.38 459.25,-19.88 459.25,-19.88 459.25,-13.87 465.25,-7.88 471.25,-7.88 471.25,-7.88 653.75,-7.88 653.75,-7.88 659.75,-7.88 665.75,-13.88 665.75,-19.88 665.75,-19.88 665.75,-71.38 665.75,-71.38 665.75,-77.38 659.75,-83.38 653.75,-83.38"/>
<text xml:space="preserve" text-anchor="middle" x="562.5" y="-65.12" font-family="Helvetica,sans-Serif" font-size="15.00">③ &#160;WORKQUEUE par&#45;CPU</text>
<text xml:space="preserve" text-anchor="middle" x="562.5" y="-47.88" font-family="Helvetica,sans-Serif" font-size="15.00">déchiffre EN PARALLÈLE</text>
<text xml:space="preserve" text-anchor="middle" x="562.5" y="-32.12" font-family="Helvetica,sans-Serif" font-size="15.00">→ fin DANS LE DÉSORDRE</text>
<text xml:space="preserve" text-anchor="middle" x="562.5" y="-13.38" font-family="Helvetica,sans-Serif" font-size="15.00">receive.c:493</text>
</g>
<!-- A2&#45;&gt;B1 -->
<g id="edge2" class="edge">
<title>A2&#45;&gt;B1</title>
<path fill="none" stroke="black" stroke-width="1.6" d="M419.62,-45.62C428.55,-45.62 437.65,-45.62 446.69,-45.62"/>
<polygon fill="black" stroke="black" stroke-width="1.6" points="446.56,-49.13 456.56,-45.63 446.56,-42.13 446.56,-49.13"/>
</g>
<!-- B2 -->
<g id="node4" class="node">
<title>B2</title>
<path fill="#fecaca" stroke="#b91c1c" stroke-width="3" d="M850,-74C850,-74 717.75,-74 717.75,-74 711.75,-74 705.75,-68 705.75,-62 705.75,-62 705.75,-29.25 705.75,-29.25 705.75,-23.25 711.75,-17.25 717.75,-17.25 717.75,-17.25 850,-17.25 850,-17.25 856,-17.25 862,-23.25 862,-29.25 862,-29.25 862,-62 862,-62 862,-68 856,-74 850,-74"/>
<text xml:space="preserve" text-anchor="middle" x="783.88" y="-55.75" font-family="Helvetica,sans-Serif" font-size="15.00">④ &#160;★ napi_schedule</text>
<text xml:space="preserve" text-anchor="middle" x="783.88" y="-38.5" font-family="Helvetica,sans-Serif" font-size="15.00">INCONDITIONNEL</text>
<text xml:space="preserve" text-anchor="middle" x="783.88" y="-22.75" font-family="Helvetica,sans-Serif" font-size="15.00">queueing.h:196</text>
</g>
<!-- B1&#45;&gt;B2 -->
<g id="edge3" class="edge">
<title>B1&#45;&gt;B2</title>
<path fill="none" stroke="black" stroke-width="1.6" d="M666.12,-45.62C674.74,-45.62 683.41,-45.62 691.93,-45.62"/>
<polygon fill="black" stroke="black" stroke-width="1.6" points="691.86,-49.13 701.86,-45.63 691.86,-42.13 691.86,-49.13"/>
</g>
<!-- C1 -->
<g id="node5" class="node">
<title>C1</title>
<path fill="#dcfce7" stroke="black" d="M1098.75,-91.25C1098.75,-91.25 914,-91.25 914,-91.25 908,-91.25 902,-85.25 902,-79.25 902,-79.25 902,-12 902,-12 902,-6 908,0 914,0 914,0 1098.75,0 1098.75,0 1104.75,0 1110.75,-6 1110.75,-12 1110.75,-12 1110.75,-79.25 1110.75,-79.25 1110.75,-85.25 1104.75,-91.25 1098.75,-91.25"/>
<text xml:space="preserve" text-anchor="middle" x="1006.38" y="-73" font-family="Helvetica,sans-Serif" font-size="15.00">⑤ &#160;NAPI WireGuard :</text>
<text xml:space="preserve" text-anchor="middle" x="1006.38" y="-55.75" font-family="Helvetica,sans-Serif" font-size="15.00">wg_packet_rx_poll</text>
<text xml:space="preserve" text-anchor="middle" x="1006.38" y="-40" font-family="Helvetica,sans-Serif" font-size="15.00">s&#39;arrête au 1er UNCRYPTED</text>
<text xml:space="preserve" text-anchor="middle" x="1006.38" y="-24.25" font-family="Helvetica,sans-Serif" font-size="15.00">→ réveils À VIDE</text>
<text xml:space="preserve" text-anchor="middle" x="1006.38" y="-5.5" font-family="Helvetica,sans-Serif" font-size="15.00">receive.c:451</text>
</g>
<!-- B2&#45;&gt;C1 -->
<g id="edge4" class="edge">
<title>B2&#45;&gt;C1</title>
<path fill="none" stroke="black" stroke-width="1.6" d="M863.24,-45.62C871.83,-45.62 880.71,-45.62 889.64,-45.62"/>
<polygon fill="black" stroke="black" stroke-width="1.6" points="889.39,-49.13 899.39,-45.63 889.39,-42.13 889.39,-49.13"/>
</g>
<!-- C2 -->
<g id="node6" class="node">
<title>C2</title>
<path fill="#dcfce7" stroke="black" d="M1328.75,-66.88C1328.75,-66.88 1162.75,-66.88 1162.75,-66.88 1156.75,-66.88 1150.75,-60.88 1150.75,-54.88 1150.75,-54.88 1150.75,-36.38 1150.75,-36.38 1150.75,-30.37 1156.75,-24.38 1162.75,-24.38 1162.75,-24.38 1328.75,-24.38 1328.75,-24.38 1334.75,-24.38 1340.75,-30.38 1340.75,-36.38 1340.75,-36.38 1340.75,-54.88 1340.75,-54.88 1340.75,-60.88 1334.75,-66.88 1328.75,-66.88"/>
<text xml:space="preserve" text-anchor="middle" x="1245.75" y="-48.62" font-family="Helvetica,sans-Serif" font-size="15.00">⑥ &#160;GRO #2 → application</text>
<text xml:space="preserve" text-anchor="middle" x="1245.75" y="-29.88" font-family="Helvetica,sans-Serif" font-size="15.00">receive.c:411</text>
</g>
<!-- C1&#45;&gt;C2 -->
<g id="edge5" class="edge">
<title>C1&#45;&gt;C2</title>
<path fill="none" stroke="black" stroke-width="1.6" d="M1111.15,-45.62C1120.15,-45.62 1129.27,-45.62 1138.3,-45.62"/>
<polygon fill="black" stroke="black" stroke-width="1.6" points="1138.11,-49.13 1148.11,-45.63 1138.11,-42.13 1138.11,-49.13"/>
</g>
</g>
</svg>
