<?xml version="1.0" encoding="UTF-8" standalone="no"?>
<!DOCTYPE svg PUBLIC "-//W3C//DTD SVG 1.1//EN"
 "http://www.w3.org/Graphics/SVG/1.1/DTD/svg11.dtd">
<!-- Generated by graphviz version 15.0.0 (20260523.1842)
 -->
<!-- Title: PEERSLIDE Pages: 1 -->
<svg width="762pt" height="322pt"
 viewBox="0.00 0.00 762.00 322.00" xmlns="http://www.w3.org/2000/svg" xmlns:xlink="http://www.w3.org/1999/xlink">
<g id="graph0" class="graph" transform="scale(1 1) rotate(0) translate(4 318.11)">
<title>PEERSLIDE</title>
<text xml:space="preserve" text-anchor="middle" x="377.24" y="-293.01" font-family="Helvetica,sans-Serif" font-size="18.00">The &quot;peer&quot; — one wg0, many correspondents</text>
<!-- WG -->
<g id="node1" class="node">
<title>WG</title>
<ellipse fill="#bfdbfe" stroke="black" cx="377.24" cy="-269.36" rx="319.02" ry="18"/>
<text xml:space="preserve" text-anchor="middle" x="377.24" y="-262.99" font-family="Helvetica,sans-Serif" font-size="15.00">wg0 — VIRTUAL interface: holds the list of all correspondents (peers)</text>
</g>
<!-- P -->
<g id="node2" class="node">
<title>P</title>
<ellipse fill="#ede9fe" stroke="black" cx="377.24" cy="-183.43" rx="377.24" ry="27.93"/>
<text xml:space="preserve" text-anchor="middle" x="377.24" y="-184.93" font-family="Helvetica,sans-Serif" font-size="15.00">EACH peer (up to 1000) = one record:</text>
<text xml:space="preserve" text-anchor="middle" x="377.24" y="-169.18" font-family="Helvetica,sans-Serif" font-size="15.00">public key (identity, not the IP) &#160;&#45; &#160;ITS OWN ordered queue &#160;&#45; &#160;ITS OWN NAPI</text>
</g>
<!-- WG&#45;&gt;P -->
<g id="edge1" class="edge">
<title>WG&#45;&gt;P</title>
<path fill="none" stroke="black" stroke-width="1.6" d="M377.24,-250.97C377.24,-243.09 377.24,-233.43 377.24,-223.93"/>
<polygon fill="black" stroke="black" stroke-width="1.6" points="380.74,-224.13 377.24,-214.13 373.74,-224.13 380.74,-224.13"/>
</g>
<!-- WQ -->
<g id="node3" class="node">
<title>WQ</title>
<path fill="#fee2e2" stroke="black" d="M622.99,-112.23C622.99,-114.03 512.84,-115.5 377.24,-115.5 241.64,-115.5 131.49,-114.03 131.49,-112.23 131.49,-112.23 131.49,-82.77 131.49,-82.77 131.49,-80.97 241.64,-79.5 377.24,-79.5 512.84,-79.5 622.99,-80.97 622.99,-82.77 622.99,-82.77 622.99,-112.23 622.99,-112.23"/>
<path fill="none" stroke="black" d="M622.99,-112.23C622.99,-110.42 512.84,-108.95 377.24,-108.95 241.64,-108.95 131.49,-110.42 131.49,-112.23"/>
<text xml:space="preserve" text-anchor="middle" x="377.24" y="-91.12" font-family="Helvetica,sans-Serif" font-size="15.00">ONE single decryption workshop, SHARED by all (per&#45;CPU workqueue)</text>
</g>
<!-- P&#45;&gt;WQ -->
<g id="edge2" class="edge">
<title>P&#45;&gt;WQ</title>
<path fill="none" stroke="black" stroke-width="1.6" d="M377.24,-155.41C377.24,-146.72 377.24,-137.04 377.24,-128.17"/>
<polygon fill="black" stroke="black" stroke-width="1.6" points="380.74,-128.37 377.24,-118.37 373.74,-128.37 380.74,-128.37"/>
</g>
<!-- NOTE -->
<g id="node4" class="node">
<title>NOTE</title>
<polygon fill="#fef9c3" stroke="black" points="651.12,-39.5 97.37,-39.5 97.37,0 657.12,0 657.12,-33.5 651.12,-39.5"/>
<polyline fill="none" stroke="black" points="651.12,-39.5 651.12,-33.5"/>
<polyline fill="none" stroke="black" points="657.12,-33.5 651.12,-33.5"/>
<text xml:space="preserve" text-anchor="middle" x="377.24" y="-21.25" font-family="Helvetica,sans-Serif" font-size="15.00">queue + NAPI ARE PER PEER &#45;&gt; ordering (and the bug) is PER peer;</text>
<text xml:space="preserve" text-anchor="middle" x="377.24" y="-5.5" font-family="Helvetica,sans-Serif" font-size="15.00">but the workshop is SINGLE &#45;&gt; more peers = more disorder = growing regression</text>
</g>
<!-- WQ&#45;&gt;NOTE -->
<g id="edge3" class="edge">
<title>WQ&#45;&gt;NOTE</title>
<path fill="none" stroke="black" stroke-width="1.6" d="M377.24,-79.31C377.24,-71.21 377.24,-61.28 377.24,-51.92"/>
<polygon fill="black" stroke="black" stroke-width="1.6" points="380.74,-52.15 377.24,-42.15 373.74,-52.15 380.74,-52.15"/>
</g>
</g>
</svg>
