<?xml version="1.0" encoding="UTF-8" standalone="no"?>
<!DOCTYPE svg PUBLIC "-//W3C//DTD SVG 1.1//EN"
 "http://www.w3.org/Graphics/SVG/1.1/DTD/svg11.dtd">
<!-- Generated by graphviz version 15.0.0 (20260523.1842)
 -->
<!-- Title: GROSLIDE Pages: 1 -->
<svg width="582pt" height="434pt"
 viewBox="0.00 0.00 582.00 434.00" xmlns="http://www.w3.org/2000/svg" xmlns:xlink="http://www.w3.org/1999/xlink">
<g id="graph0" class="graph" transform="scale(1 1) rotate(0) translate(4 430.01)">
<title>GROSLIDE</title>
<!-- IN -->
<g id="node1" class="node">
<title>IN</title>
<ellipse fill="#dbeafe" stroke="black" cx="286.79" cy="-408.01" rx="233.56" ry="18"/>
<text xml:space="preserve" text-anchor="middle" x="286.79" y="-401.06" font-family="Helvetica,sans-Serif" font-size="16.00">4 paquets du MÊME flux &#160;(paquet 1 · 2 · 3 · 4)</text>
</g>
<!-- GRO -->
<g id="node2" class="node">
<title>GRO</title>
<path fill="#dcfce7" stroke="black" d="M561.9,-323.26C561.9,-323.26 441.88,-351.28 441.88,-351.28 436.03,-352.65 424.19,-354.01 418.19,-354.01 418.19,-354.01 155.4,-354.01 155.4,-354.01 149.4,-354.01 137.55,-352.65 131.71,-351.28 131.71,-351.28 11.69,-323.26 11.69,-323.26 5.84,-321.9 5.84,-319.17 11.69,-317.81 11.69,-317.81 131.71,-289.79 131.71,-289.79 137.55,-288.42 149.4,-287.06 155.4,-287.06 155.4,-287.06 418.19,-287.06 418.19,-287.06 424.19,-287.06 436.03,-288.42 441.88,-289.79 441.88,-289.79 561.9,-317.81 561.9,-317.81 567.75,-319.17 567.75,-321.9 561.9,-323.26"/>
<text xml:space="preserve" text-anchor="middle" x="286.79" y="-321.84" font-family="Helvetica,sans-Serif" font-size="16.00">on les AGRAFE au lieu de monter tout de suite</text>
<text xml:space="preserve" text-anchor="middle" x="286.79" y="-305.34" font-family="Helvetica,sans-Serif" font-size="16.00">= napi_gro_receive &#160;&#160;(receive.c:411)</text>
</g>
<!-- IN&#45;&gt;GRO -->
<g id="edge1" class="edge">
<title>IN&#45;&gt;GRO</title>
<path fill="none" stroke="black" stroke-width="1.6" d="M286.79,-389.72C286.79,-382.98 286.79,-374.91 286.79,-366.73"/>
<polygon fill="black" stroke="black" stroke-width="1.6" points="290.29,-366.79 286.79,-356.79 283.29,-366.79 290.29,-366.79"/>
</g>
<!-- BIG -->
<g id="node3" class="node">
<title>BIG</title>
<ellipse fill="#bbf7d0" stroke="black" cx="286.79" cy="-233.06" rx="156.27" ry="18"/>
<text xml:space="preserve" text-anchor="middle" x="286.79" y="-226.11" font-family="Helvetica,sans-Serif" font-size="16.00">UN seul gros colis &#160;(1+2+3+4)</text>
</g>
<!-- GRO&#45;&gt;BIG -->
<g id="edge2" class="edge">
<title>GRO&#45;&gt;BIG</title>
<path fill="none" stroke="black" stroke-width="1.6" d="M286.79,-286.73C286.79,-279.11 286.79,-271.03 286.79,-263.56"/>
<polygon fill="black" stroke="black" stroke-width="1.6" points="290.29,-263.78 286.79,-253.78 283.29,-263.78 290.29,-263.78"/>
</g>
<!-- UP -->
<g id="node4" class="node">
<title>UP</title>
<ellipse fill="#dcfce7" stroke="black" cx="286.79" cy="-136.28" rx="230.34" ry="42.78"/>
<text xml:space="preserve" text-anchor="middle" x="286.79" y="-147.33" font-family="Helvetica,sans-Serif" font-size="16.00">napi_complete_done → gro_flush_normal :</text>
<text xml:space="preserve" text-anchor="middle" x="286.79" y="-127.83" font-family="Helvetica,sans-Serif" font-size="16.00">UNE seule traversée de pile au lieu de 4</text>
<text xml:space="preserve" text-anchor="middle" x="286.79" y="-111.33" font-family="Helvetica,sans-Serif" font-size="16.00">(le « péage » par paquet est payé 1 fois)</text>
</g>
<!-- BIG&#45;&gt;UP -->
<g id="edge3" class="edge">
<title>BIG&#45;&gt;UP</title>
<path fill="none" stroke="black" stroke-width="1.6" d="M286.79,-214.68C286.79,-208 286.79,-199.97 286.79,-191.65"/>
<polygon fill="black" stroke="black" stroke-width="1.6" points="290.29,-191.79 286.79,-181.79 283.29,-191.79 290.29,-191.79"/>
</g>
<!-- FRONTS -->
<g id="node5" class="node">
<title>FRONTS</title>
<polygon fill="#fef9c3" stroke="black" points="449.29,-57.5 118.29,-57.5 118.29,0 455.29,0 455.29,-51.5 449.29,-57.5"/>
<polyline fill="none" stroke="black" points="449.29,-57.5 449.29,-51.5"/>
<polyline fill="none" stroke="black" points="455.29,-51.5 449.29,-51.5"/>
<text xml:space="preserve" text-anchor="middle" x="286.79" y="-38.3" font-family="Helvetica,sans-Serif" font-size="16.00">2 fronts chez WireGuard :</text>
<text xml:space="preserve" text-anchor="middle" x="286.79" y="-21.8" font-family="Helvetica,sans-Serif" font-size="16.00">#1 externe chiffré (carte) — CONDITIONNEL</text>
<text xml:space="preserve" text-anchor="middle" x="286.79" y="-5.3" font-family="Helvetica,sans-Serif" font-size="16.00">#2 interne déchiffré (wg0) — EXPLICITE</text>
</g>
<!-- UP&#45;&gt;FRONTS -->
</g>
</svg>
