<?xml version="1.0" encoding="UTF-8" standalone="no"?>
<!DOCTYPE svg PUBLIC "-//W3C//DTD SVG 1.1//EN"
 "http://www.w3.org/Graphics/SVG/1.1/DTD/svg11.dtd">
<!-- Generated by graphviz version 15.0.0 (20260523.1842)
 -->
<!-- Title: PIPE Pages: 1 -->
<svg width="743pt" height="271pt"
 viewBox="0.00 0.00 743.00 271.00" xmlns="http://www.w3.org/2000/svg" xmlns:xlink="http://www.w3.org/1999/xlink">
<g id="graph0" class="graph" transform="scale(1 1) rotate(0) translate(4 267)">
<title>PIPE</title>
<!-- A1 -->
<g id="node1" class="node">
<title>A1</title>
<path fill="#dbeafe" stroke="black" d="M158.5,-245.75C158.5,-245.75 12,-245.75 12,-245.75 6,-245.75 0,-239.75 0,-233.75 0,-233.75 0,-202.5 0,-202.5 0,-196.5 6,-190.5 12,-190.5 12,-190.5 158.5,-190.5 158.5,-190.5 164.5,-190.5 170.5,-196.5 170.5,-202.5 170.5,-202.5 170.5,-233.75 170.5,-233.75 170.5,-239.75 164.5,-245.75 158.5,-245.75"/>
<text xml:space="preserve" text-anchor="middle" x="85.25" y="-227.5" font-family="Helvetica,sans-Serif" font-size="15.00">(1) &#160;NIC: driver&#39;s NAPI</text>
<text xml:space="preserve" text-anchor="middle" x="85.25" y="-211.75" font-family="Helvetica,sans-Serif" font-size="15.00">+ GRO #1 (conditional)</text>
<text xml:space="preserve" text-anchor="middle" x="85.25" y="-196" font-family="Helvetica,sans-Serif" font-size="15.00">udp_offload.c:800</text>
</g>
<!-- A2 -->
<g id="node2" class="node">
<title>A2</title>
<path fill="#dbeafe" stroke="black" d="M446.38,-263C446.38,-263 254.12,-263 254.12,-263 248.12,-263 242.12,-257 242.12,-251 242.12,-251 242.12,-185.25 242.12,-185.25 242.12,-179.25 248.12,-173.25 254.12,-173.25 254.12,-173.25 446.38,-173.25 446.38,-173.25 452.38,-173.25 458.38,-179.25 458.38,-185.25 458.38,-185.25 458.38,-251 458.38,-251 458.38,-257 452.38,-263 446.38,-263"/>
<text xml:space="preserve" text-anchor="middle" x="350.25" y="-244.75" font-family="Helvetica,sans-Serif" font-size="15.00">(2) &#160;WireGuard receives →</text>
<text xml:space="preserve" text-anchor="middle" x="350.25" y="-226" font-family="Helvetica,sans-Serif" font-size="15.00">two&#45;phase enqueue:</text>
<text xml:space="preserve" text-anchor="middle" x="350.25" y="-210.25" font-family="Helvetica,sans-Serif" font-size="15.00">&#45; ORDERED queue (per peer)</text>
<text xml:space="preserve" text-anchor="middle" x="350.25" y="-194.5" font-family="Helvetica,sans-Serif" font-size="15.00">&#45; queue_work_on(cpu)</text>
<text xml:space="preserve" text-anchor="middle" x="350.25" y="-178.75" font-family="Helvetica,sans-Serif" font-size="15.00">queueing.h:152</text>
</g>
<!-- A1&#45;&gt;A2 -->
<g id="edge1" class="edge">
<title>A1&#45;&gt;A2</title>
<path fill="none" stroke="black" stroke-width="1.8" d="M170.91,-218.12C190.26,-218.12 209.6,-218.12 228.95,-218.12"/>
<polygon fill="black" stroke="black" stroke-width="1.8" points="228.94,-221.63 238.94,-218.13 228.94,-214.63 228.94,-221.63"/>
</g>
<!-- B1 -->
<g id="node3" class="node">
<title>B1</title>
<path fill="#fee2e2" stroke="black" d="M722.75,-255.12C722.75,-255.12 541.75,-255.12 541.75,-255.12 535.75,-255.12 529.75,-249.12 529.75,-243.12 529.75,-243.12 529.75,-193.12 529.75,-193.12 529.75,-187.12 535.75,-181.12 541.75,-181.12 541.75,-181.12 722.75,-181.12 722.75,-181.12 728.75,-181.12 734.75,-187.12 734.75,-193.12 734.75,-193.12 734.75,-243.12 734.75,-243.12 734.75,-249.12 728.75,-255.12 722.75,-255.12"/>
<text xml:space="preserve" text-anchor="middle" x="632.25" y="-236.88" font-family="Helvetica,sans-Serif" font-size="15.00">(3) &#160;per&#45;CPU WORKQUEUE</text>
<text xml:space="preserve" text-anchor="middle" x="632.25" y="-221.12" font-family="Helvetica,sans-Serif" font-size="15.00">decrypts IN PARALLEL</text>
<text xml:space="preserve" text-anchor="middle" x="632.25" y="-205.38" font-family="Helvetica,sans-Serif" font-size="15.00">→ finishes OUT OF ORDER</text>
<text xml:space="preserve" text-anchor="middle" x="632.25" y="-186.62" font-family="Helvetica,sans-Serif" font-size="15.00">receive.c:493</text>
</g>
<!-- A2&#45;&gt;B1 -->
<g id="edge2" class="edge">
<title>A2&#45;&gt;B1</title>
<path fill="none" stroke="black" stroke-width="1.8" d="M458.75,-218.12C478.21,-218.12 497.67,-218.12 517.13,-218.12"/>
<polygon fill="black" stroke="black" stroke-width="1.8" points="516.85,-221.63 526.85,-218.13 516.85,-214.63 516.85,-221.63"/>
</g>
<!-- B2 -->
<g id="node4" class="node">
<title>B2</title>
<path fill="#fecaca" stroke="#b91c1c" stroke-width="3" d="M689.75,-72.5C689.75,-72.5 574.75,-72.5 574.75,-72.5 568.75,-72.5 562.75,-66.5 562.75,-60.5 562.75,-60.5 562.75,-29.25 562.75,-29.25 562.75,-23.25 568.75,-17.25 574.75,-17.25 574.75,-17.25 689.75,-17.25 689.75,-17.25 695.75,-17.25 701.75,-23.25 701.75,-29.25 701.75,-29.25 701.75,-60.5 701.75,-60.5 701.75,-66.5 695.75,-72.5 689.75,-72.5"/>
<text xml:space="preserve" text-anchor="middle" x="632.25" y="-54.25" font-family="Helvetica,sans-Serif" font-size="15.00">(4) &#160;napi_schedule</text>
<text xml:space="preserve" text-anchor="middle" x="632.25" y="-38.5" font-family="Helvetica,sans-Serif" font-size="15.00">UNCONDITIONAL</text>
<text xml:space="preserve" text-anchor="middle" x="632.25" y="-22.75" font-family="Helvetica,sans-Serif" font-size="15.00">queueing.h:196</text>
</g>
<!-- B1&#45;&gt;B2 -->
<g id="edge5" class="edge">
<title>B1&#45;&gt;B2</title>
<path fill="none" stroke="#b91c1c" stroke-width="3.2" d="M632.25,-180.81C632.25,-153.88 632.25,-117.09 632.25,-88.73"/>
<polygon fill="#b91c1c" stroke="#b91c1c" stroke-width="3.2" points="635.75,-88.8 632.25,-78.8 628.75,-88.8 635.75,-88.8"/>
<text xml:space="preserve" text-anchor="middle" x="670.5" y="-132.85" font-family="Helvetica,sans-Serif" font-size="12.00"> &#160;every packet,</text>
<text xml:space="preserve" text-anchor="middle" x="670.5" y="-120.1" font-family="Helvetica,sans-Serif" font-size="12.00"> &#160;out of order</text>
</g>
<!-- C1 -->
<g id="node5" class="node">
<title>C1</title>
<path fill="#dcfce7" stroke="black" d="M479.12,-89.75C479.12,-89.75 309.38,-89.75 309.38,-89.75 303.38,-89.75 297.38,-83.75 297.38,-77.75 297.38,-77.75 297.38,-12 297.38,-12 297.38,-6 303.38,0 309.38,0 309.38,0 479.12,0 479.12,0 485.12,0 491.12,-6 491.12,-12 491.12,-12 491.12,-77.75 491.12,-77.75 491.12,-83.75 485.12,-89.75 479.12,-89.75"/>
<text xml:space="preserve" text-anchor="middle" x="394.25" y="-71.5" font-family="Helvetica,sans-Serif" font-size="15.00">(5) &#160;WireGuard&#39;s NAPI:</text>
<text xml:space="preserve" text-anchor="middle" x="394.25" y="-55.75" font-family="Helvetica,sans-Serif" font-size="15.00">wg_packet_rx_poll</text>
<text xml:space="preserve" text-anchor="middle" x="394.25" y="-40" font-family="Helvetica,sans-Serif" font-size="15.00">stops at first UNCRYPTED</text>
<text xml:space="preserve" text-anchor="middle" x="394.25" y="-24.25" font-family="Helvetica,sans-Serif" font-size="15.00">→ EMPTY polls</text>
<text xml:space="preserve" text-anchor="middle" x="394.25" y="-5.5" font-family="Helvetica,sans-Serif" font-size="15.00">receive.c:451</text>
</g>
<!-- C1&#45;&gt;B2 -->
<g id="edge4" class="edge">
<title>C1&#45;&gt;B2</title>
<path fill="none" stroke="black" stroke-width="1.8" d="M503.96,-44.88C523.06,-44.88 542.17,-44.88 561.28,-44.88"/>
<polygon fill="black" stroke="black" stroke-width="1.8" points="504.13,-41.38 494.13,-44.88 504.13,-48.38 504.13,-41.38"/>
</g>
<!-- C2 -->
<g id="node6" class="node">
<title>C2</title>
<path fill="#dcfce7" stroke="black" d="M214.12,-66.12C214.12,-66.12 44.37,-66.12 44.37,-66.12 38.38,-66.12 32.38,-60.12 32.38,-54.12 32.38,-54.12 32.38,-35.62 32.38,-35.62 32.38,-29.62 38.38,-23.62 44.38,-23.62 44.38,-23.62 214.12,-23.62 214.12,-23.62 220.12,-23.62 226.12,-29.62 226.12,-35.62 226.12,-35.62 226.12,-54.12 226.12,-54.12 226.12,-60.12 220.12,-66.12 214.12,-66.12"/>
<text xml:space="preserve" text-anchor="middle" x="129.25" y="-47.88" font-family="Helvetica,sans-Serif" font-size="15.00">(6) &#160;GRO #2 → application</text>
<text xml:space="preserve" text-anchor="middle" x="129.25" y="-29.12" font-family="Helvetica,sans-Serif" font-size="15.00">receive.c:411</text>
</g>
<!-- C2&#45;&gt;C1 -->
<g id="edge3" class="edge">
<title>C2&#45;&gt;C1</title>
<path fill="none" stroke="black" stroke-width="1.8" d="M239.21,-44.88C258.46,-44.88 277.72,-44.88 296.97,-44.88"/>
<polygon fill="black" stroke="black" stroke-width="1.8" points="239.28,-41.38 229.28,-44.88 239.28,-48.38 239.28,-41.38"/>
</g>
</g>
</svg>
