<?xml version="1.0" encoding="UTF-8" standalone="no"?>
<!DOCTYPE svg PUBLIC "-//W3C//DTD SVG 1.1//EN"
 "http://www.w3.org/Graphics/SVG/1.1/DTD/svg11.dtd">
<!-- Generated by graphviz version 15.0.0 (20260523.1842)
 -->
<!-- Title: PEERSLIDE Pages: 1 -->
<svg width="714pt" height="328pt"
 viewBox="0.00 0.00 714.00 328.00" xmlns="http://www.w3.org/2000/svg" xmlns:xlink="http://www.w3.org/1999/xlink">
<g id="graph0" class="graph" transform="scale(1 1) rotate(0) translate(4 324.11)">
<title>PEERSLIDE</title>
<text xml:space="preserve" text-anchor="middle" x="352.96" y="-299.01" font-family="Helvetica,sans-Serif" font-size="18.00">Le « pair » — une wg0, beaucoup de correspondants</text>
<!-- WG -->
<g id="node1" class="node">
<title>WG</title>
<ellipse fill="#bfdbfe" stroke="black" cx="352.96" cy="-275.36" rx="352.96" ry="18"/>
<text xml:space="preserve" text-anchor="middle" x="352.96" y="-268.99" font-family="Helvetica,sans-Serif" font-size="15.00">wg0 — interface VIRTUELLE : tient la liste de tous les correspondants (pairs)</text>
</g>
<!-- P -->
<g id="node2" class="node">
<title>P</title>
<ellipse fill="#ede9fe" stroke="black" cx="352.96" cy="-189.43" rx="318.37" ry="27.93"/>
<text xml:space="preserve" text-anchor="middle" x="352.96" y="-190.93" font-family="Helvetica,sans-Serif" font-size="15.00">CHAQUE pair (jusqu&#39;à 1000) = une fiche :</text>
<text xml:space="preserve" text-anchor="middle" x="352.96" y="-175.18" font-family="Helvetica,sans-Serif" font-size="15.00">clé publique (identité, pas l&#39;IP) &#160;· &#160;SA file ORDONNÉE &#160;· &#160;SA NAPI</text>
</g>
<!-- WG&#45;&gt;P -->
<g id="edge1" class="edge">
<title>WG&#45;&gt;P</title>
<path fill="none" stroke="black" stroke-width="1.6" d="M352.96,-256.97C352.96,-249.09 352.96,-239.43 352.96,-229.93"/>
<polygon fill="black" stroke="black" stroke-width="1.6" points="356.46,-230.13 352.96,-220.13 349.46,-230.13 356.46,-230.13"/>
</g>
<!-- WQ -->
<g id="node3" class="node">
<title>WQ</title>
<path fill="#fee2e2" stroke="black" d="M616.71,-118.23C616.71,-120.03 498.49,-121.5 352.96,-121.5 207.42,-121.5 89.21,-120.03 89.21,-118.23 89.21,-118.23 89.21,-88.77 89.21,-88.77 89.21,-86.97 207.42,-85.5 352.96,-85.5 498.49,-85.5 616.71,-86.97 616.71,-88.77 616.71,-88.77 616.71,-118.23 616.71,-118.23"/>
<path fill="none" stroke="black" d="M616.71,-118.23C616.71,-116.42 498.49,-114.95 352.96,-114.95 207.42,-114.95 89.21,-116.42 89.21,-118.23"/>
<text xml:space="preserve" text-anchor="middle" x="352.96" y="-97.12" font-family="Helvetica,sans-Serif" font-size="15.00">UN SEUL atelier de déchiffrement, PARTAGÉ par tous (workqueue par&#45;CPU)</text>
</g>
<!-- P&#45;&gt;WQ -->
<g id="edge2" class="edge">
<title>P&#45;&gt;WQ</title>
<path fill="none" stroke="black" stroke-width="1.6" d="M352.96,-161.41C352.96,-152.72 352.96,-143.04 352.96,-134.17"/>
<polygon fill="black" stroke="black" stroke-width="1.6" points="356.46,-134.37 352.96,-124.37 349.46,-134.37 356.46,-134.37"/>
</g>
<!-- NOTE -->
<g id="node4" class="node">
<title>NOTE</title>
<polygon fill="#fef9c3" stroke="black" points="639.21,-45.5 60.71,-45.5 60.71,0 645.21,0 645.21,-39.5 639.21,-45.5"/>
<polyline fill="none" stroke="black" points="639.21,-45.5 639.21,-39.5"/>
<polyline fill="none" stroke="black" points="645.21,-39.5 639.21,-39.5"/>
<text xml:space="preserve" text-anchor="middle" x="352.96" y="-27.25" font-family="Helvetica,sans-Serif" font-size="15.00">file + NAPI PAR pair → l&#39;ordre (et le bug) est PAR pair ;</text>
<text xml:space="preserve" text-anchor="middle" x="352.96" y="-8.5" font-family="Helvetica,sans-Serif" font-size="15.00">mais l&#39;atelier est UNIQUE → plus de pairs = plus de désordre = régression croissante</text>
</g>
<!-- WQ&#45;&gt;NOTE -->
<g id="edge3" class="edge">
<title>WQ&#45;&gt;NOTE</title>
<path fill="none" stroke="black" stroke-width="1.6" d="M352.96,-85.02C352.96,-77.11 352.96,-67.47 352.96,-58.19"/>
<polygon fill="black" stroke="black" stroke-width="1.6" points="356.46,-58.4 352.96,-48.4 349.46,-58.4 356.46,-58.4"/>
</g>
</g>
</svg>
