<?xml version="1.0" encoding="UTF-8" standalone="no"?>
<!DOCTYPE svg PUBLIC "-//W3C//DTD SVG 1.1//EN"
 "http://www.w3.org/Graphics/SVG/1.1/DTD/svg11.dtd">
<!-- Generated by graphviz version 15.0.0 (20260523.1842)
 -->
<!-- Title: WQSLIDE Pages: 1 -->
<svg width="739pt" height="383pt"
 viewBox="0.00 0.00 739.00 383.00" xmlns="http://www.w3.org/2000/svg" xmlns:xlink="http://www.w3.org/1999/xlink">
<g id="graph0" class="graph" transform="scale(1 1) rotate(0) translate(4 378.85)">
<title>WQSLIDE</title>
<text xml:space="preserve" text-anchor="middle" x="365.43" y="-353.75" font-family="Helvetica,sans-Serif" font-size="18.00">Workqueue — confier le travail LONG à un « bureau à l&#39;arrière »</text>
<!-- SOFT -->
<g id="node1" class="node">
<title>SOFT</title>
<ellipse fill="#dbeafe" stroke="black" cx="365.43" cy="-318.05" rx="261.1" ry="30.05"/>
<text xml:space="preserve" text-anchor="middle" x="365.43" y="-321.05" font-family="Helvetica,sans-Serif" font-size="15.00">l&#39;ACCUEIL (softirq) : interdit d&#39;y faire du travail LONG</text>
<text xml:space="preserve" text-anchor="middle" x="365.43" y="-305.3" font-family="Helvetica,sans-Serif" font-size="15.00">→ on ne peut PAS déchiffrer ici</text>
</g>
<!-- HAND -->
<g id="node2" class="node">
<title>HAND</title>
<ellipse fill="#dbeafe" stroke="black" cx="365.43" cy="-234" rx="365.43" ry="18"/>
<text xml:space="preserve" text-anchor="middle" x="365.43" y="-227.62" font-family="Helvetica,sans-Serif" font-size="15.00">on POSE le travail sur un cœur précis = queue_work_on(cpu) &#160;(queueing.h:171)</text>
</g>
<!-- SOFT&#45;&gt;HAND -->
<g id="edge1" class="edge">
<title>SOFT&#45;&gt;HAND</title>
<path fill="none" stroke="black" stroke-width="1.6" d="M365.43,-287.89C365.43,-280.22 365.43,-271.94 365.43,-264.26"/>
<polygon fill="black" stroke="black" stroke-width="1.6" points="368.93,-264.54 365.43,-254.54 361.93,-264.54 368.93,-264.54"/>
</g>
<!-- WQ -->
<g id="node3" class="node">
<title>WQ</title>
<path fill="#fee2e2" stroke="black" d="M655.06,-176.73C655.06,-178.53 525.24,-180 365.43,-180 205.62,-180 75.81,-178.53 75.81,-176.73 75.81,-176.73 75.81,-147.27 75.81,-147.27 75.81,-145.47 205.62,-144 365.43,-144 525.24,-144 655.06,-145.47 655.06,-147.27 655.06,-147.27 655.06,-176.73 655.06,-176.73"/>
<path fill="none" stroke="black" d="M655.06,-176.73C655.06,-174.92 525.24,-173.45 365.43,-173.45 205.62,-173.45 75.81,-174.92 75.81,-176.73"/>
<text xml:space="preserve" text-anchor="middle" x="365.43" y="-155.62" font-family="Helvetica,sans-Serif" font-size="15.00">le BUREAU À L&#39;ARRIÈRE : workqueue par&#45;CPU = UN employé (thread) PAR CŒUR</text>
</g>
<!-- HAND&#45;&gt;WQ -->
<g id="edge2" class="edge">
<title>HAND&#45;&gt;WQ</title>
<path fill="none" stroke="black" stroke-width="1.6" d="M365.43,-215.7C365.43,-208.66 365.43,-200.33 365.43,-192.39"/>
<polygon fill="black" stroke="black" stroke-width="1.6" points="368.93,-192.53 365.43,-182.53 361.93,-192.53 368.93,-192.53"/>
</g>
<!-- OOO -->
<g id="node4" class="node">
<title>OOO</title>
<polygon fill="#fef9c3" stroke="black" points="640.81,-108 84.06,-108 84.06,-72 646.81,-72 646.81,-102 640.81,-108"/>
<polyline fill="none" stroke="black" points="640.81,-108 640.81,-102"/>
<polyline fill="none" stroke="black" points="646.81,-102 640.81,-102"/>
<text xml:space="preserve" text-anchor="middle" x="365.43" y="-85.12" font-family="Helvetica,sans-Serif" font-size="15.00">ils déchiffrent EN MÊME TEMPS → fin DANS LE DÉSORDRE &#160;← la graine du bug</text>
</g>
<!-- WQ&#45;&gt;OOO -->
<g id="edge3" class="edge">
<title>WQ&#45;&gt;OOO</title>
<path fill="none" stroke="black" stroke-width="1.6" d="M365.43,-143.7C365.43,-136.66 365.43,-128.33 365.43,-120.39"/>
<polygon fill="black" stroke="black" stroke-width="1.6" points="368.93,-120.53 365.43,-110.53 361.93,-120.53 368.93,-120.53"/>
</g>
<!-- SCHED -->
<g id="node5" class="node">
<title>SCHED</title>
<ellipse fill="#dcfce7" stroke="black" cx="365.43" cy="-18" rx="306.55" ry="18"/>
<text xml:space="preserve" text-anchor="middle" x="365.43" y="-11.62" font-family="Helvetica,sans-Serif" font-size="15.00">chaque employé qui a fini SONNE la NAPI du pair = napi_schedule</text>
</g>
<!-- OOO&#45;&gt;SCHED -->
<g id="edge4" class="edge">
<title>OOO&#45;&gt;SCHED</title>
<path fill="none" stroke="black" stroke-width="1.6" d="M365.43,-71.7C365.43,-64.66 365.43,-56.33 365.43,-48.39"/>
<polygon fill="black" stroke="black" stroke-width="1.6" points="368.93,-48.53 365.43,-38.53 361.93,-48.53 368.93,-48.53"/>
</g>
</g>
</svg>
