<?xml version="1.0" encoding="UTF-8" standalone="no"?>
<!DOCTYPE svg PUBLIC "-//W3C//DTD SVG 1.1//EN"
 "http://www.w3.org/Graphics/SVG/1.1/DTD/svg11.dtd">
<!-- Generated by graphviz version 15.0.0 (20260523.1842)
 -->
<!-- Title: WQSLIDE Pages: 1 -->
<svg width="751pt" height="383pt"
 viewBox="0.00 0.00 751.00 383.00" xmlns="http://www.w3.org/2000/svg" xmlns:xlink="http://www.w3.org/1999/xlink">
<g id="graph0" class="graph" transform="scale(1 1) rotate(0) translate(4 378.85)">
<title>WQSLIDE</title>
<text xml:space="preserve" text-anchor="middle" x="371.41" y="-353.75" font-family="Helvetica,sans-Serif" font-size="18.00">Workqueue — hand LONG work to a &quot;back office&quot;</text>
<!-- SOFT -->
<g id="node1" class="node">
<title>SOFT</title>
<ellipse fill="#dbeafe" stroke="black" cx="371.41" cy="-318.05" rx="371.41" ry="30.05"/>
<text xml:space="preserve" text-anchor="middle" x="371.41" y="-321.05" font-family="Helvetica,sans-Serif" font-size="15.00">the FRONT DESK (softirq): not allowed to do LONG work / to &quot;take a pause&quot;</text>
<text xml:space="preserve" text-anchor="middle" x="371.41" y="-305.3" font-family="Helvetica,sans-Serif" font-size="15.00">→ we CANNOT decrypt here</text>
</g>
<!-- HAND -->
<g id="node2" class="node">
<title>HAND</title>
<ellipse fill="#dbeafe" stroke="black" cx="371.41" cy="-234" rx="362.44" ry="18"/>
<text xml:space="preserve" text-anchor="middle" x="371.41" y="-227.62" font-family="Helvetica,sans-Serif" font-size="15.00">we DROP the work on a specific core = queue_work_on(cpu) &#160;(queueing.h:171)</text>
</g>
<!-- SOFT&#45;&gt;HAND -->
<g id="edge1" class="edge">
<title>SOFT&#45;&gt;HAND</title>
<path fill="none" stroke="black" stroke-width="1.6" d="M371.41,-287.89C371.41,-280.22 371.41,-271.94 371.41,-264.26"/>
<polygon fill="black" stroke="black" stroke-width="1.6" points="374.91,-264.54 371.41,-254.54 367.91,-264.54 374.91,-264.54"/>
</g>
<!-- WQ -->
<g id="node3" class="node">
<title>WQ</title>
<path fill="#fee2e2" stroke="black" d="M633.28,-176.73C633.28,-178.53 515.91,-180 371.41,-180 226.91,-180 109.53,-178.53 109.53,-176.73 109.53,-176.73 109.53,-147.27 109.53,-147.27 109.53,-145.47 226.91,-144 371.41,-144 515.91,-144 633.28,-145.47 633.28,-147.27 633.28,-147.27 633.28,-176.73 633.28,-176.73"/>
<path fill="none" stroke="black" d="M633.28,-176.73C633.28,-174.92 515.91,-173.45 371.41,-173.45 226.91,-173.45 109.53,-174.92 109.53,-176.73"/>
<text xml:space="preserve" text-anchor="middle" x="371.41" y="-155.62" font-family="Helvetica,sans-Serif" font-size="15.00">the BACK OFFICE: per&#45;CPU workqueue = ONE worker (thread) PER CORE</text>
</g>
<!-- HAND&#45;&gt;WQ -->
<g id="edge2" class="edge">
<title>HAND&#45;&gt;WQ</title>
<path fill="none" stroke="black" stroke-width="1.6" d="M371.41,-215.7C371.41,-208.66 371.41,-200.33 371.41,-192.39"/>
<polygon fill="black" stroke="black" stroke-width="1.6" points="374.91,-192.53 371.41,-182.53 367.91,-192.53 374.91,-192.53"/>
</g>
<!-- OOO -->
<g id="node4" class="node">
<title>OOO</title>
<polygon fill="#fef9c3" stroke="black" points="652.41,-108 84.41,-108 84.41,-72 658.41,-72 658.41,-102 652.41,-108"/>
<polyline fill="none" stroke="black" points="652.41,-108 652.41,-102"/>
<polyline fill="none" stroke="black" points="658.41,-102 652.41,-102"/>
<text xml:space="preserve" text-anchor="middle" x="371.41" y="-85.12" font-family="Helvetica,sans-Serif" font-size="15.00">they decrypt AT THE SAME TIME → finish OUT OF ORDER &#160;← the seed of the bug</text>
</g>
<!-- WQ&#45;&gt;OOO -->
<g id="edge3" class="edge">
<title>WQ&#45;&gt;OOO</title>
<path fill="none" stroke="black" stroke-width="1.6" d="M371.41,-143.7C371.41,-136.66 371.41,-128.33 371.41,-120.39"/>
<polygon fill="black" stroke="black" stroke-width="1.6" points="374.91,-120.53 371.41,-110.53 367.91,-120.53 374.91,-120.53"/>
</g>
<!-- SCHED -->
<g id="node5" class="node">
<title>SCHED</title>
<ellipse fill="#dcfce7" stroke="black" cx="371.41" cy="-18" rx="284.59" ry="18"/>
<text xml:space="preserve" text-anchor="middle" x="371.41" y="-11.62" font-family="Helvetica,sans-Serif" font-size="15.00">each finished worker RINGS the peer&#39;s NAPI = napi_schedule</text>
</g>
<!-- OOO&#45;&gt;SCHED -->
<g id="edge4" class="edge">
<title>OOO&#45;&gt;SCHED</title>
<path fill="none" stroke="black" stroke-width="1.6" d="M371.41,-71.7C371.41,-64.66 371.41,-56.33 371.41,-48.39"/>
<polygon fill="black" stroke="black" stroke-width="1.6" points="374.91,-48.53 371.41,-38.53 367.91,-48.53 374.91,-48.53"/>
</g>
</g>
</svg>
