<?xml version="1.0" encoding="UTF-8" standalone="no"?>
<!DOCTYPE svg PUBLIC "-//W3C//DTD SVG 1.1//EN"
 "http://www.w3.org/Graphics/SVG/1.1/DTD/svg11.dtd">
<!-- Generated by graphviz version 15.0.0 (20260523.1842)
 -->
<!-- Title: TEASER Pages: 1 -->
<svg width="1209pt" height="130pt"
 viewBox="0.00 0.00 1209.00 130.00" xmlns="http://www.w3.org/2000/svg" xmlns:xlink="http://www.w3.org/1999/xlink">
<g id="graph0" class="graph" transform="scale(1 1) rotate(0) translate(4 126.4)">
<title>TEASER</title>
<!-- A -->
<g id="node1" class="node">
<title>A</title>
<path fill="#dbeafe" stroke="black" d="M268,-122.4C268,-122.4 12,-122.4 12,-122.4 6,-122.4 0,-116.4 0,-110.4 0,-110.4 0,-12 0,-12 0,-6 6,0 12,0 12,0 268,0 268,0 274,0 280,-6 280,-12 280,-12 280,-110.4 280,-110.4 280,-116.4 274,-122.4 268,-122.4"/>
<text xml:space="preserve" text-anchor="middle" x="140" y="-73.7" font-family="Helvetica,sans-Serif" font-size="20.00">(1) &#160;NIC&#39;s NAPI</text>
<text xml:space="preserve" text-anchor="middle" x="140" y="-52.7" font-family="Helvetica,sans-Serif" font-size="20.00">receives the encrypted packet</text>
<text xml:space="preserve" text-anchor="middle" x="140" y="-31.7" font-family="Helvetica,sans-Serif" font-size="20.00">+ GRO #1 (conditional)</text>
</g>
<!-- B -->
<g id="node2" class="node">
<title>B</title>
<path fill="#fee2e2" stroke="black" d="M742.5,-122.4C742.5,-122.4 498.5,-122.4 498.5,-122.4 492.5,-122.4 486.5,-116.4 486.5,-110.4 486.5,-110.4 486.5,-12 486.5,-12 486.5,-6 492.5,0 498.5,0 498.5,0 742.5,0 742.5,0 748.5,0 754.5,-6 754.5,-12 754.5,-12 754.5,-110.4 754.5,-110.4 754.5,-116.4 748.5,-122.4 742.5,-122.4"/>
<text xml:space="preserve" text-anchor="middle" x="620.5" y="-73.7" font-family="Helvetica,sans-Serif" font-size="20.00">(2) &#160;per&#45;CPU WORKQUEUE</text>
<text xml:space="preserve" text-anchor="middle" x="620.5" y="-52.7" font-family="Helvetica,sans-Serif" font-size="20.00">decrypts IN PARALLEL</text>
<text xml:space="preserve" text-anchor="middle" x="620.5" y="-31.7" font-family="Helvetica,sans-Serif" font-size="20.00">(finishes out of order)</text>
</g>
<!-- A&#45;&gt;B -->
<g id="edge1" class="edge">
<title>A&#45;&gt;B</title>
<path fill="none" stroke="black" stroke-width="2.2" d="M280.37,-61.2C340.77,-61.2 411.52,-61.2 472.73,-61.2"/>
<polygon fill="black" stroke="black" stroke-width="2.2" points="472.72,-64.7 482.72,-61.2 472.72,-57.7 472.72,-64.7"/>
<text xml:space="preserve" text-anchor="middle" x="383.25" y="-63.05" font-family="Helvetica,sans-Serif" font-size="17.00"> &#160;encrypted packet &#160;</text>
</g>
<!-- C -->
<g id="node3" class="node">
<title>C</title>
<path fill="#dcfce7" stroke="black" d="M1189.25,-122.4C1189.25,-122.4 973,-122.4 973,-122.4 967,-122.4 961,-116.4 961,-110.4 961,-110.4 961,-12 961,-12 961,-6 967,0 973,0 973,0 1189.25,0 1189.25,0 1195.25,0 1201.25,-6 1201.25,-12 1201.25,-12 1201.25,-110.4 1201.25,-110.4 1201.25,-116.4 1195.25,-122.4 1189.25,-122.4"/>
<text xml:space="preserve" text-anchor="middle" x="1081.12" y="-73.7" font-family="Helvetica,sans-Serif" font-size="20.00">(3) &#160;WIREGUARD&#39;s NAPI</text>
<text xml:space="preserve" text-anchor="middle" x="1081.12" y="-52.7" font-family="Helvetica,sans-Serif" font-size="20.00">re&#45;ORDERs + GRO #2</text>
<text xml:space="preserve" text-anchor="middle" x="1081.12" y="-31.7" font-family="Helvetica,sans-Serif" font-size="20.00">(virtual interface wg0)</text>
</g>
<!-- B&#45;&gt;C -->
<g id="edge2" class="edge">
<title>B&#45;&gt;C</title>
<path fill="none" stroke="black" stroke-width="2.2" d="M754.77,-61.2C815.38,-61.2 886.92,-61.2 947.46,-61.2"/>
<polygon fill="black" stroke="black" stroke-width="2.2" points="947.27,-64.7 957.27,-61.2 947.27,-57.7 947.27,-64.7"/>
<text xml:space="preserve" text-anchor="middle" x="857.75" y="-63.05" font-family="Helvetica,sans-Serif" font-size="17.00"> &#160;decrypted packet &#160;</text>
</g>
</g>
</svg>
